G04 ---------------------------- Layer name :TOP SILK LAYER*
G04 EasyEDA v5.6.15, Sat, 28 Jul 2018 02:00:14 GMT*
G04 7648dae5b10347d5bd033efbd386dee3*
G04 Gerber Generator version 0.2*
G04 Scale: 100 percent, Rotated: No, Reflected: No *
G04 Dimensions in inches *
G04 leading zeros omitted , absolute positions ,2 integer and 4 decimal *
%FSLAX24Y24*%
%MOIN*%
G90*
G70D02*

%ADD10C,0.010000*%
%ADD11C,0.008000*%
%ADD29C,0.007874*%
%ADD30C,0.007900*%
%ADD31C,0.007992*%
%ADD32C,0.012192*%
%ADD33C,0.023622*%
%ADD34C,0.011811*%
%ADD35C,0.007000*%

%LPD*%
G54D29*
G01X12850Y12080D02*
G01X13643Y12080D01*
G01X13643Y8528D01*
G01X11556Y8528D01*
G01X11556Y12080D01*
G01X12350Y12080D01*
G54D11*
G01X22331Y1850D02*
G01X21936Y1850D01*
G01X22134Y2184D02*
G01X22134Y2578D01*
G01X22331Y2380D02*
G01X21936Y2380D01*
G01X23432Y3169D02*
G01X23039Y3169D01*
G01X23235Y2971D02*
G01X23235Y3365D01*
G54D10*
G01X22843Y3778D02*
G01X22843Y628D01*
G01X24810Y628D01*
G01X24810Y3778D01*
G01X22843Y3778D01*
G54D11*
G01X23235Y963D02*
G01X23235Y1357D01*
G54D30*
G01X10468Y12911D02*
G01X10468Y14911D01*
G01X9469Y14911D01*
G01X9469Y12911D01*
G01X10468Y12911D01*
G54D10*
G01X20100Y10200D02*
G01X20100Y12200D01*
G01X20100Y12200D02*
G01X20400Y12200D01*
G01X20400Y12200D02*
G01X20700Y12200D01*
G01X20700Y12200D02*
G01X20700Y10200D01*
G01X20700Y10200D02*
G01X20400Y10200D01*
G01X20400Y10200D02*
G01X20100Y10200D01*
G01X20400Y12200D02*
G01X20400Y12300D01*
G01X20400Y10200D02*
G01X20400Y10100D01*
G01X24839Y5369D02*
G01X24839Y4430D01*
G01X24839Y4430D02*
G01X22360Y4430D01*
G01X22360Y4430D02*
G01X22360Y5369D01*
G01X22360Y5369D02*
G01X24839Y5369D01*
G01X24839Y7369D02*
G01X24839Y6430D01*
G01X24839Y6430D02*
G01X22360Y6430D01*
G01X22360Y6430D02*
G01X22360Y7369D01*
G01X22360Y7369D02*
G01X24839Y7369D01*
G01X24839Y9169D02*
G01X24839Y8230D01*
G01X24839Y8230D02*
G01X22360Y8230D01*
G01X22360Y8230D02*
G01X22360Y9169D01*
G01X22360Y9169D02*
G01X24839Y9169D01*
G54D11*
G01X2350Y15000D02*
G01X1600Y15000D01*
G01X1600Y14000D01*
G01X7600Y14000D01*
G01X7600Y15000D01*
G54D31*
G01X7600Y15000D02*
G01X2350Y15000D01*
G54D11*
G01X5700Y9700D02*
G01X5700Y8700D01*
G01X1700Y8700D01*
G01X1700Y9700D01*
G01X2450Y9700D01*
G54D31*
G01X5700Y9700D02*
G01X2450Y9700D01*
G54D11*
G01X28800Y9350D02*
G01X28800Y8600D01*
G01X29800Y8600D01*
G01X29800Y14600D01*
G01X28800Y14600D01*
G54D31*
G01X28800Y14600D02*
G01X28800Y9350D01*
G54D10*
G01X27200Y1100D02*
G01X30200Y1100D01*
G01X30200Y1100D01*
G01X27200Y1100D02*
G01X27200Y5100D01*
G01X30200Y1100D02*
G01X30200Y5100D01*
G01X27200Y5100D02*
G01X27200Y7100D01*
G01X30200Y5100D02*
G01X30200Y7100D01*
G01X27200Y7100D02*
G01X30200Y7100D01*
G54D11*
G01X2450Y11500D02*
G01X1700Y11500D01*
G01X1700Y10500D01*
G01X4700Y10500D01*
G01X4700Y11500D01*
G54D31*
G01X4700Y11500D02*
G01X2450Y11500D01*
G54D10*
G01X7830Y12240D02*
G01X8769Y12240D01*
G01X8769Y12240D02*
G01X8769Y9759D01*
G01X8769Y9759D02*
G01X7830Y9759D01*
G01X7830Y9759D02*
G01X7830Y12240D01*
G54D32*
G01X25385Y15751D02*
G01X25385Y21848D01*
G01X26910Y15751D02*
G01X26910Y21848D01*
G01X26910Y21848D02*
G01X25081Y21848D01*
G01X25081Y21848D02*
G01X25081Y15751D01*
G01X25081Y15751D02*
G01X26910Y15751D01*
G54D10*
G01X13400Y13300D02*
G01X13400Y24300D01*
G01X27000Y24300D01*
G01X27000Y13300D01*
G01X13400Y13300D01*
G54D29*
G01X17050Y8519D02*
G01X16256Y8519D01*
G01X16256Y12071D01*
G01X18343Y12071D01*
G01X18343Y8519D01*
G01X17550Y8519D01*
G54D10*
G01X5240Y13169D02*
G01X5240Y12230D01*
G01X5240Y12230D02*
G01X2759Y12230D01*
G01X2759Y12230D02*
G01X2759Y13169D01*
G01X2759Y13169D02*
G01X5240Y13169D01*
G01X1650Y24300D02*
G01X11150Y24300D01*
G01X11150Y15800D01*
G01X1650Y15800D01*
G01X1650Y24300D01*
G01X4900Y24300D02*
G01X4900Y21800D01*
G01X7900Y21800D01*
G01X7900Y24300D01*
G01X4900Y24300D01*
G01X900Y700D02*
G01X19400Y700D01*
G01X19400Y7700D01*
G01X900Y7700D01*
G01X900Y700D01*
G01X3900Y5200D02*
G01X3900Y3200D01*
G01X400Y3200D01*
G01X400Y5200D01*
G01X3900Y5200D01*
G01X4900Y4200D02*
G01X6400Y5700D01*
G01X7900Y4200D01*
G01X6400Y2700D01*
G01X4900Y4200D01*
G01X4900Y4200D01*
G54D35*
G01X9943Y10600D02*
G01X9943Y10171D01*
G01X9800Y10600D02*
G01X10085Y10600D01*
G01X10221Y10519D02*
G01X10261Y10538D01*
G01X10323Y10600D01*
G01X10323Y10171D01*
G01X20981Y2153D02*
G01X21410Y2153D01*
G01X20981Y2153D02*
G01X20981Y2296D01*
G01X21001Y2358D01*
G01X21042Y2398D01*
G01X21083Y2419D01*
G01X21144Y2439D01*
G01X21246Y2439D01*
G01X21308Y2419D01*
G01X21349Y2398D01*
G01X21390Y2358D01*
G01X21410Y2296D01*
G01X21410Y2153D01*
G01X21062Y2574D02*
G01X21042Y2615D01*
G01X20981Y2677D01*
G01X21410Y2677D01*
G01X10856Y14307D02*
G01X10815Y14286D01*
G01X10775Y14244D01*
G01X10755Y14205D01*
G01X10755Y14123D01*
G01X10775Y14082D01*
G01X10815Y14040D01*
G01X10856Y14019D01*
G01X10918Y14000D01*
G01X11019Y14000D01*
G01X11081Y14019D01*
G01X11122Y14040D01*
G01X11164Y14082D01*
G01X11184Y14123D01*
G01X11184Y14205D01*
G01X11164Y14244D01*
G01X11122Y14286D01*
G01X11081Y14307D01*
G01X10835Y14442D02*
G01X10815Y14482D01*
G01X10755Y14544D01*
G01X11184Y14544D01*
G01X19255Y11100D02*
G01X19684Y11100D01*
G01X19255Y11100D02*
G01X19255Y11284D01*
G01X19275Y11344D01*
G01X19294Y11365D01*
G01X19335Y11386D01*
G01X19377Y11386D01*
G01X19418Y11365D01*
G01X19439Y11344D01*
G01X19459Y11284D01*
G01X19459Y11100D01*
G01X19459Y11242D02*
G01X19684Y11386D01*
G01X19335Y11521D02*
G01X19315Y11561D01*
G01X19255Y11623D01*
G01X19684Y11623D01*
G01X23700Y4144D02*
G01X23700Y3715D01*
G01X23700Y4144D02*
G01X23884Y4144D01*
G01X23944Y4125D01*
G01X23965Y4105D01*
G01X23985Y4063D01*
G01X23985Y4023D01*
G01X23965Y3982D01*
G01X23944Y3961D01*
G01X23884Y3940D01*
G01X23700Y3940D01*
G01X23843Y3940D02*
G01X23985Y3715D01*
G01X24367Y4144D02*
G01X24161Y4144D01*
G01X24142Y3961D01*
G01X24161Y3982D01*
G01X24223Y4001D01*
G01X24285Y4001D01*
G01X24346Y3982D01*
G01X24386Y3940D01*
G01X24407Y3880D01*
G01X24407Y3838D01*
G01X24386Y3776D01*
G01X24346Y3736D01*
G01X24285Y3715D01*
G01X24223Y3715D01*
G01X24161Y3736D01*
G01X24142Y3757D01*
G01X24121Y3798D01*
G01X23700Y6144D02*
G01X23700Y5715D01*
G01X23700Y6144D02*
G01X23884Y6144D01*
G01X23944Y6125D01*
G01X23965Y6105D01*
G01X23985Y6063D01*
G01X23985Y6023D01*
G01X23965Y5982D01*
G01X23944Y5961D01*
G01X23884Y5940D01*
G01X23700Y5940D01*
G01X23843Y5940D02*
G01X23985Y5715D01*
G01X24367Y6084D02*
G01X24346Y6125D01*
G01X24285Y6144D01*
G01X24243Y6144D01*
G01X24182Y6125D01*
G01X24142Y6063D01*
G01X24121Y5961D01*
G01X24121Y5859D01*
G01X24142Y5776D01*
G01X24182Y5736D01*
G01X24243Y5715D01*
G01X24264Y5715D01*
G01X24326Y5736D01*
G01X24367Y5776D01*
G01X24386Y5838D01*
G01X24386Y5859D01*
G01X24367Y5919D01*
G01X24326Y5961D01*
G01X24264Y5982D01*
G01X24243Y5982D01*
G01X24182Y5961D01*
G01X24142Y5919D01*
G01X24121Y5859D01*
G01X23700Y7944D02*
G01X23700Y7515D01*
G01X23700Y7944D02*
G01X23884Y7944D01*
G01X23944Y7925D01*
G01X23965Y7905D01*
G01X23985Y7863D01*
G01X23985Y7823D01*
G01X23965Y7782D01*
G01X23944Y7761D01*
G01X23884Y7740D01*
G01X23700Y7740D01*
G01X23843Y7740D02*
G01X23985Y7515D01*
G01X24407Y7944D02*
G01X24202Y7515D01*
G01X24121Y7944D02*
G01X24407Y7944D01*
G01X3000Y13800D02*
G01X3000Y13371D01*
G01X3134Y13800D02*
G01X3134Y13371D01*
G01X3134Y13800D02*
G01X3421Y13371D01*
G01X3421Y13800D02*
G01X3421Y13371D01*
G01X3555Y13800D02*
G01X3555Y13371D01*
G01X3555Y13800D02*
G01X3740Y13800D01*
G01X3801Y13780D01*
G01X3821Y13759D01*
G01X3842Y13719D01*
G01X3842Y13657D01*
G01X3821Y13615D01*
G01X3801Y13596D01*
G01X3740Y13575D01*
G01X3555Y13575D01*
G01X3978Y13800D02*
G01X3978Y13494D01*
G01X3998Y13432D01*
G01X4038Y13390D01*
G01X4100Y13371D01*
G01X4140Y13371D01*
G01X4203Y13390D01*
G01X4244Y13432D01*
G01X4263Y13494D01*
G01X4263Y13800D01*
G01X4542Y13800D02*
G01X4542Y13371D01*
G01X4398Y13800D02*
G01X4684Y13800D01*
G01X5107Y13738D02*
G01X5065Y13780D01*
G01X5005Y13800D01*
G01X4923Y13800D01*
G01X4861Y13780D01*
G01X4819Y13738D01*
G01X4819Y13698D01*
G01X4840Y13657D01*
G01X4861Y13636D01*
G01X4901Y13615D01*
G01X5025Y13575D01*
G01X5065Y13555D01*
G01X5086Y13534D01*
G01X5107Y13494D01*
G01X5107Y13432D01*
G01X5065Y13390D01*
G01X5005Y13371D01*
G01X4923Y13371D01*
G01X4861Y13390D01*
G01X4819Y13432D01*
G01X2600Y10300D02*
G01X2600Y9871D01*
G01X2600Y10300D02*
G01X2742Y10300D01*
G01X2805Y10280D01*
G01X2844Y10238D01*
G01X2865Y10198D01*
G01X2886Y10136D01*
G01X2886Y10034D01*
G01X2865Y9973D01*
G01X2844Y9932D01*
G01X2805Y9890D01*
G01X2742Y9871D01*
G01X2600Y9871D01*
G01X3021Y10300D02*
G01X3021Y9871D01*
G01X3442Y10238D02*
G01X3401Y10280D01*
G01X3340Y10300D01*
G01X3259Y10300D01*
G01X3196Y10280D01*
G01X3155Y10238D01*
G01X3155Y10198D01*
G01X3176Y10157D01*
G01X3196Y10136D01*
G01X3238Y10115D01*
G01X3361Y10075D01*
G01X3401Y10055D01*
G01X3421Y10034D01*
G01X3442Y9994D01*
G01X3442Y9932D01*
G01X3401Y9890D01*
G01X3340Y9871D01*
G01X3259Y9871D01*
G01X3196Y9890D01*
G01X3155Y9932D01*
G01X3578Y10300D02*
G01X3578Y9871D01*
G01X3578Y10300D02*
G01X3761Y10300D01*
G01X3823Y10280D01*
G01X3844Y10259D01*
G01X3863Y10219D01*
G01X3863Y10157D01*
G01X3844Y10115D01*
G01X3823Y10096D01*
G01X3761Y10075D01*
G01X3578Y10075D01*
G01X3998Y10300D02*
G01X3998Y9871D01*
G01X3998Y9871D02*
G01X4244Y9871D01*
G01X4542Y10300D02*
G01X4380Y9871D01*
G01X4542Y10300D02*
G01X4707Y9871D01*
G01X4440Y10013D02*
G01X4644Y10013D01*
G01X4842Y10300D02*
G01X5005Y10096D01*
G01X5005Y9871D01*
G01X5169Y10300D02*
G01X5005Y10096D01*
G01X28055Y11600D02*
G01X28484Y11886D01*
G01X28055Y11886D02*
G01X28484Y11600D01*
G01X28055Y12021D02*
G01X28484Y12021D01*
G01X28055Y12021D02*
G01X28055Y12286D01*
G01X28259Y12021D02*
G01X28259Y12184D01*
G01X28055Y12421D02*
G01X28484Y12421D01*
G01X28055Y12421D02*
G01X28484Y12586D01*
G01X28055Y12750D02*
G01X28484Y12586D01*
G01X28055Y12750D02*
G01X28484Y12750D01*
G01X28055Y12884D02*
G01X28484Y12884D01*
G01X28055Y12884D02*
G01X28055Y13069D01*
G01X28075Y13130D01*
G01X28094Y13150D01*
G01X28135Y13171D01*
G01X28177Y13171D01*
G01X28218Y13150D01*
G01X28239Y13130D01*
G01X28259Y13069D01*
G01X28259Y12884D01*
G01X28259Y13028D02*
G01X28484Y13171D01*
G01X28400Y7800D02*
G01X28400Y7371D01*
G01X28400Y7800D02*
G01X28584Y7800D01*
G01X28644Y7780D01*
G01X28665Y7760D01*
G01X28685Y7719D01*
G01X28685Y7657D01*
G01X28665Y7616D01*
G01X28644Y7596D01*
G01X28584Y7575D01*
G01X28400Y7575D01*
G01X29026Y7800D02*
G01X28821Y7514D01*
G01X29127Y7514D01*
G01X29026Y7800D02*
G01X29026Y7371D01*
G01X700Y10089D02*
G01X1128Y10089D01*
G01X700Y10089D02*
G01X700Y10273D01*
G01X719Y10334D01*
G01X740Y10355D01*
G01X780Y10375D01*
G01X842Y10375D01*
G01X884Y10355D01*
G01X903Y10334D01*
G01X925Y10273D01*
G01X925Y10089D01*
G01X700Y10510D02*
G01X1128Y10613D01*
G01X700Y10715D02*
G01X1128Y10613D01*
G01X700Y10715D02*
G01X1128Y10817D01*
G01X700Y10919D02*
G01X1128Y10817D01*
G01X700Y11054D02*
G01X1128Y11054D01*
G01X700Y11054D02*
G01X700Y11239D01*
G01X719Y11300D01*
G01X740Y11320D01*
G01X780Y11341D01*
G01X821Y11341D01*
G01X863Y11320D01*
G01X884Y11300D01*
G01X903Y11239D01*
G01X903Y11054D01*
G01X903Y11198D02*
G01X1128Y11341D01*
G01X1271Y11476D02*
G01X1271Y11844D01*
G01X700Y11979D02*
G01X1128Y11979D01*
G01X700Y12114D02*
G01X1128Y12114D01*
G01X700Y12114D02*
G01X1128Y12400D01*
G01X700Y12400D02*
G01X1128Y12400D01*
G01X9055Y11100D02*
G01X9484Y11100D01*
G01X9055Y11100D02*
G01X9055Y11284D01*
G01X9075Y11344D01*
G01X9094Y11365D01*
G01X9136Y11386D01*
G01X9176Y11386D01*
G01X9217Y11365D01*
G01X9238Y11344D01*
G01X9259Y11284D01*
G01X9259Y11100D01*
G01X9259Y11242D02*
G01X9484Y11386D01*
G01X9055Y11561D02*
G01X9055Y11786D01*
G01X9217Y11665D01*
G01X9217Y11726D01*
G01X9238Y11767D01*
G01X9259Y11786D01*
G01X9319Y11807D01*
G01X9361Y11807D01*
G01X9423Y11786D01*
G01X9463Y11746D01*
G01X9484Y11684D01*
G01X9484Y11623D01*
G01X9463Y11561D01*
G01X9442Y11542D01*
G01X9401Y11521D01*
G01X24255Y18923D02*
G01X24275Y18882D01*
G01X24315Y18840D01*
G01X24356Y18819D01*
G01X24418Y18800D01*
G01X24519Y18800D01*
G01X24581Y18819D01*
G01X24622Y18840D01*
G01X24664Y18882D01*
G01X24684Y18923D01*
G01X24684Y19005D01*
G01X24664Y19044D01*
G01X24622Y19086D01*
G01X24581Y19107D01*
G01X24519Y19127D01*
G01X24418Y19127D01*
G01X24356Y19107D01*
G01X24315Y19086D01*
G01X24275Y19044D01*
G01X24255Y19005D01*
G01X24255Y18923D01*
G01X24602Y18984D02*
G01X24725Y19107D01*
G01X24335Y19261D02*
G01X24315Y19303D01*
G01X24255Y19365D01*
G01X24684Y19365D01*
G54D11*
G01X18600Y16200D02*
G01X19363Y16200D01*
G01X18600Y16709D02*
G01X19363Y16709D01*
G01X18963Y16200D02*
G01X18963Y16709D01*
G01X18600Y16948D02*
G01X19363Y16948D01*
G01X18600Y16948D02*
G01X18600Y17421D01*
G01X18963Y16948D02*
G01X18963Y17240D01*
G01X19363Y16948D02*
G01X19363Y17421D01*
G01X18600Y17953D02*
G01X19363Y17661D01*
G01X18600Y17953D02*
G01X19363Y18244D01*
G01X19109Y17771D02*
G01X19109Y18134D01*
G01X18600Y18738D02*
G01X19363Y18738D01*
G01X18600Y18484D02*
G01X18600Y18992D01*
G01X18709Y19742D02*
G01X18635Y19669D01*
G01X18600Y19559D01*
G01X18600Y19415D01*
G01X18635Y19305D01*
G01X18709Y19232D01*
G01X18781Y19232D01*
G01X18853Y19269D01*
G01X18890Y19305D01*
G01X18927Y19378D01*
G01X19000Y19596D01*
G01X19035Y19669D01*
G01X19072Y19705D01*
G01X19144Y19742D01*
G01X19253Y19742D01*
G01X19327Y19669D01*
G01X19363Y19559D01*
G01X19363Y19415D01*
G01X19327Y19305D01*
G01X19253Y19232D01*
G01X18600Y19982D02*
G01X19363Y19982D01*
G01X18600Y20221D02*
G01X19363Y20221D01*
G01X18600Y20221D02*
G01X19363Y20730D01*
G01X18600Y20730D02*
G01X19363Y20730D01*
G01X18600Y20971D02*
G01X19363Y20971D01*
G01X18600Y21480D02*
G01X19109Y20971D01*
G01X18927Y21153D02*
G01X19363Y21480D01*
G54D35*
G01X17350Y8344D02*
G01X17350Y8038D01*
G01X17369Y7976D01*
G01X17410Y7936D01*
G01X17472Y7915D01*
G01X17514Y7915D01*
G01X17575Y7936D01*
G01X17615Y7976D01*
G01X17635Y8038D01*
G01X17635Y8344D01*
G01X17976Y8344D02*
G01X17771Y8059D01*
G01X18077Y8059D01*
G01X17976Y8344D02*
G01X17976Y7915D01*
G01X600Y13200D02*
G01X600Y12771D01*
G01X600Y13200D02*
G01X784Y13200D01*
G01X844Y13180D01*
G01X865Y13159D01*
G01X886Y13119D01*
G01X886Y13078D01*
G01X865Y13036D01*
G01X844Y13015D01*
G01X784Y12996D01*
G01X600Y12996D01*
G01X742Y12996D02*
G01X886Y12771D01*
G01X1042Y13098D02*
G01X1042Y13119D01*
G01X1061Y13159D01*
G01X1082Y13180D01*
G01X1123Y13200D01*
G01X1205Y13200D01*
G01X1246Y13180D01*
G01X1267Y13159D01*
G01X1286Y13119D01*
G01X1286Y13078D01*
G01X1267Y13036D01*
G01X1226Y12975D01*
G01X1021Y12771D01*
G01X1307Y12771D01*
G01X6400Y25044D02*
G01X6400Y24738D01*
G01X6419Y24677D01*
G01X6461Y24636D01*
G01X6523Y24615D01*
G01X6563Y24615D01*
G01X6625Y24636D01*
G01X6665Y24677D01*
G01X6686Y24738D01*
G01X6686Y25044D01*
G01X6821Y24963D02*
G01X6861Y24984D01*
G01X6923Y25044D01*
G01X6923Y24615D01*
G54D11*
G01X3650Y20985D02*
G01X3650Y20222D01*
G01X3650Y20985D02*
G01X3940Y20222D01*
G01X4232Y20985D02*
G01X3940Y20222D01*
G01X4232Y20985D02*
G01X4232Y20222D01*
G01X4763Y20985D02*
G01X4471Y20222D01*
G01X4763Y20985D02*
G01X5053Y20222D01*
G01X4580Y20476D02*
G01X4944Y20476D01*
G01X5294Y20985D02*
G01X5803Y20222D01*
G01X5803Y20985D02*
G01X5294Y20222D01*
G01X6115Y20985D02*
G01X6515Y20985D01*
G01X6296Y20694D01*
G01X6405Y20694D01*
G01X6478Y20658D01*
G01X6515Y20622D01*
G01X6551Y20513D01*
G01X6551Y20440D01*
G01X6515Y20331D01*
G01X6442Y20258D01*
G01X6334Y20222D01*
G01X6225Y20222D01*
G01X6115Y20258D01*
G01X6078Y20294D01*
G01X6042Y20367D01*
G01X6792Y20840D02*
G01X6865Y20876D01*
G01X6973Y20985D01*
G01X6973Y20222D01*
G01X7394Y20985D02*
G01X7286Y20949D01*
G01X7250Y20876D01*
G01X7250Y20804D01*
G01X7286Y20731D01*
G01X7359Y20694D01*
G01X7505Y20658D01*
G01X7613Y20622D01*
G01X7686Y20549D01*
G01X7723Y20476D01*
G01X7723Y20367D01*
G01X7686Y20294D01*
G01X7650Y20258D01*
G01X7540Y20222D01*
G01X7394Y20222D01*
G01X7286Y20258D01*
G01X7250Y20294D01*
G01X7213Y20367D01*
G01X7213Y20476D01*
G01X7250Y20549D01*
G01X7323Y20622D01*
G01X7432Y20658D01*
G01X7576Y20694D01*
G01X7650Y20731D01*
G01X7686Y20804D01*
G01X7686Y20876D01*
G01X7650Y20949D01*
G01X7540Y20985D01*
G01X7394Y20985D01*
G01X8398Y20985D02*
G01X8034Y20985D01*
G01X7998Y20658D01*
G01X8034Y20694D01*
G01X8144Y20731D01*
G01X8253Y20731D01*
G01X8363Y20694D01*
G01X8434Y20622D01*
G01X8471Y20513D01*
G01X8471Y20440D01*
G01X8434Y20331D01*
G01X8363Y20258D01*
G01X8253Y20222D01*
G01X8144Y20222D01*
G01X8034Y20258D01*
G01X7998Y20294D01*
G01X7963Y20367D01*
G01X9148Y20876D02*
G01X9111Y20949D01*
G01X9003Y20985D01*
G01X8930Y20985D01*
G01X8821Y20949D01*
G01X8748Y20840D01*
G01X8711Y20658D01*
G01X8711Y20476D01*
G01X8748Y20331D01*
G01X8821Y20258D01*
G01X8930Y20222D01*
G01X8965Y20222D01*
G01X9075Y20258D01*
G01X9148Y20331D01*
G01X9184Y20440D01*
G01X9184Y20476D01*
G01X9148Y20585D01*
G01X9075Y20658D01*
G01X8965Y20694D01*
G01X8930Y20694D01*
G01X8821Y20658D01*
G01X8748Y20585D01*
G01X8711Y20476D01*
G01X9650Y17550D02*
G01X9650Y17174D01*
G01X9650Y17550D02*
G01X9775Y17550D01*
G01X9828Y17532D01*
G01X9864Y17496D01*
G01X9882Y17460D01*
G01X9901Y17407D01*
G01X9901Y17317D01*
G01X9882Y17263D01*
G01X9864Y17228D01*
G01X9828Y17192D01*
G01X9775Y17174D01*
G01X9650Y17174D01*
G01X10018Y17550D02*
G01X10018Y17174D01*
G01X10018Y17550D02*
G01X10180Y17550D01*
G01X10232Y17532D01*
G01X10251Y17514D01*
G01X10268Y17478D01*
G01X10268Y17442D01*
G01X10251Y17407D01*
G01X10232Y17389D01*
G01X10180Y17371D01*
G01X10018Y17371D01*
G01X10143Y17371D02*
G01X10268Y17174D01*
G01X10386Y17550D02*
G01X10386Y17174D01*
G01X10386Y17550D02*
G01X10513Y17550D01*
G01X10565Y17532D01*
G01X10602Y17496D01*
G01X10619Y17460D01*
G01X10638Y17407D01*
G01X10638Y17317D01*
G01X10619Y17263D01*
G01X10602Y17228D01*
G01X10565Y17192D01*
G01X10513Y17174D01*
G01X10386Y17174D01*
G01X10756Y17550D02*
G01X10898Y17371D01*
G01X10898Y17174D01*
G01X11042Y17550D02*
G01X10898Y17371D01*
G01X8900Y16300D02*
G01X8900Y15924D01*
G01X8900Y16300D02*
G01X9133Y16300D01*
G01X8900Y16121D02*
G01X9043Y16121D01*
G01X9251Y16300D02*
G01X9251Y15924D01*
G01X9251Y15924D02*
G01X9465Y15924D01*
G01X9709Y16300D02*
G01X9709Y15924D01*
G01X9584Y16300D02*
G01X9834Y16300D01*
G01X8417Y17460D02*
G01X8400Y17496D01*
G01X8364Y17532D01*
G01X8328Y17550D01*
G01X8256Y17550D01*
G01X8221Y17532D01*
G01X8185Y17496D01*
G01X8167Y17460D01*
G01X8149Y17407D01*
G01X8149Y17317D01*
G01X8167Y17263D01*
G01X8185Y17228D01*
G01X8221Y17192D01*
G01X8256Y17174D01*
G01X8328Y17174D01*
G01X8364Y17192D01*
G01X8400Y17228D01*
G01X8417Y17263D01*
G01X8786Y17496D02*
G01X8750Y17532D01*
G01X8697Y17550D01*
G01X8625Y17550D01*
G01X8571Y17532D01*
G01X8536Y17496D01*
G01X8536Y17460D01*
G01X8553Y17424D01*
G01X8571Y17407D01*
G01X8607Y17389D01*
G01X8714Y17353D01*
G01X8750Y17335D01*
G01X8768Y17317D01*
G01X8786Y17281D01*
G01X8786Y17228D01*
G01X8750Y17192D01*
G01X8697Y17174D01*
G01X8625Y17174D01*
G01X8571Y17192D01*
G01X8536Y17228D01*
G01X7150Y16246D02*
G01X7114Y16282D01*
G01X7060Y16300D01*
G01X6988Y16300D01*
G01X6935Y16282D01*
G01X6899Y16246D01*
G01X6899Y16210D01*
G01X6917Y16174D01*
G01X6935Y16157D01*
G01X6971Y16139D01*
G01X7078Y16103D01*
G01X7114Y16085D01*
G01X7132Y16067D01*
G01X7150Y16031D01*
G01X7150Y15978D01*
G01X7114Y15942D01*
G01X7060Y15924D01*
G01X6988Y15924D01*
G01X6935Y15942D01*
G01X6899Y15978D01*
G01X7268Y16300D02*
G01X7268Y15924D01*
G01X7268Y16300D02*
G01X7393Y16300D01*
G01X7447Y16282D01*
G01X7482Y16246D01*
G01X7500Y16210D01*
G01X7518Y16157D01*
G01X7518Y16067D01*
G01X7500Y16013D01*
G01X7482Y15978D01*
G01X7447Y15942D01*
G01X7393Y15924D01*
G01X7268Y15924D01*
G01X7636Y16300D02*
G01X7636Y15924D01*
G01X6151Y17496D02*
G01X6115Y17532D01*
G01X6061Y17550D01*
G01X5988Y17550D01*
G01X5936Y17532D01*
G01X5900Y17496D01*
G01X5900Y17460D01*
G01X5917Y17424D01*
G01X5936Y17407D01*
G01X5971Y17389D01*
G01X6078Y17353D01*
G01X6115Y17335D01*
G01X6132Y17317D01*
G01X6151Y17281D01*
G01X6151Y17228D01*
G01X6115Y17192D01*
G01X6061Y17174D01*
G01X5988Y17174D01*
G01X5936Y17192D01*
G01X5900Y17228D01*
G01X6269Y17550D02*
G01X6269Y17174D01*
G01X6269Y17550D02*
G01X6394Y17550D01*
G01X6448Y17532D01*
G01X6482Y17496D01*
G01X6501Y17460D01*
G01X6519Y17407D01*
G01X6519Y17317D01*
G01X6501Y17263D01*
G01X6482Y17228D01*
G01X6448Y17192D01*
G01X6394Y17174D01*
G01X6269Y17174D01*
G01X6744Y17550D02*
G01X6709Y17532D01*
G01X6673Y17496D01*
G01X6655Y17460D01*
G01X6636Y17407D01*
G01X6636Y17317D01*
G01X6655Y17263D01*
G01X6673Y17228D01*
G01X6709Y17192D01*
G01X6744Y17174D01*
G01X6815Y17174D01*
G01X6851Y17192D01*
G01X6888Y17228D01*
G01X6905Y17263D01*
G01X6923Y17317D01*
G01X6923Y17407D01*
G01X6905Y17460D01*
G01X6888Y17496D01*
G01X6851Y17532D01*
G01X6815Y17550D01*
G01X6744Y17550D01*
G01X5151Y16246D02*
G01X5115Y16282D01*
G01X5061Y16300D01*
G01X4989Y16300D01*
G01X4936Y16282D01*
G01X4900Y16246D01*
G01X4900Y16210D01*
G01X4918Y16174D01*
G01X4936Y16157D01*
G01X4972Y16139D01*
G01X5079Y16103D01*
G01X5115Y16085D01*
G01X5133Y16067D01*
G01X5151Y16031D01*
G01X5151Y15978D01*
G01X5115Y15942D01*
G01X5061Y15924D01*
G01X4989Y15924D01*
G01X4936Y15942D01*
G01X4900Y15978D01*
G01X5537Y16210D02*
G01X5519Y16246D01*
G01X5483Y16282D01*
G01X5448Y16300D01*
G01X5376Y16300D01*
G01X5340Y16282D01*
G01X5304Y16246D01*
G01X5287Y16210D01*
G01X5269Y16157D01*
G01X5269Y16067D01*
G01X5287Y16013D01*
G01X5304Y15978D01*
G01X5340Y15942D01*
G01X5376Y15924D01*
G01X5448Y15924D01*
G01X5483Y15942D01*
G01X5519Y15978D01*
G01X5537Y16013D01*
G01X5655Y16300D02*
G01X5655Y15924D01*
G01X5906Y16300D02*
G01X5655Y16049D01*
G01X5745Y16139D02*
G01X5906Y15924D01*
G01X4168Y17460D02*
G01X4151Y17496D01*
G01X4115Y17532D01*
G01X4079Y17550D01*
G01X4007Y17550D01*
G01X3972Y17532D01*
G01X3936Y17496D01*
G01X3918Y17460D01*
G01X3900Y17407D01*
G01X3900Y17317D01*
G01X3918Y17263D01*
G01X3936Y17228D01*
G01X3972Y17192D01*
G01X4007Y17174D01*
G01X4079Y17174D01*
G01X4115Y17192D01*
G01X4151Y17228D01*
G01X4168Y17263D01*
G01X4168Y17317D01*
G01X4079Y17317D02*
G01X4168Y17317D01*
G01X4287Y17550D02*
G01X4287Y17174D01*
G01X4287Y17550D02*
G01X4537Y17174D01*
G01X4537Y17550D02*
G01X4537Y17174D01*
G01X4655Y17550D02*
G01X4655Y17174D01*
G01X4655Y17550D02*
G01X4780Y17550D01*
G01X4834Y17532D01*
G01X4870Y17496D01*
G01X4888Y17460D01*
G01X4906Y17407D01*
G01X4906Y17317D01*
G01X4888Y17263D01*
G01X4870Y17228D01*
G01X4834Y17192D01*
G01X4780Y17174D01*
G01X4655Y17174D01*
G01X2936Y16300D02*
G01X3132Y16300D01*
G01X3025Y16157D01*
G01X3078Y16157D01*
G01X3115Y16139D01*
G01X3132Y16121D01*
G01X3151Y16067D01*
G01X3151Y16031D01*
G01X3132Y15978D01*
G01X3096Y15942D01*
G01X3042Y15924D01*
G01X2988Y15924D01*
G01X2936Y15942D01*
G01X2917Y15960D01*
G01X2900Y15996D01*
G01X3286Y16013D02*
G01X3269Y15996D01*
G01X3286Y15978D01*
G01X3303Y15996D01*
G01X3286Y16013D01*
G01X3457Y16300D02*
G01X3655Y16300D01*
G01X3548Y16157D01*
G01X3601Y16157D01*
G01X3636Y16139D01*
G01X3655Y16121D01*
G01X3673Y16067D01*
G01X3673Y16031D01*
G01X3655Y15978D01*
G01X3619Y15942D01*
G01X3565Y15924D01*
G01X3511Y15924D01*
G01X3457Y15942D01*
G01X3440Y15960D01*
G01X3423Y15996D01*
G01X1900Y17550D02*
G01X2042Y17174D01*
G01X2186Y17550D02*
G01X2042Y17174D01*
G01X2303Y17550D02*
G01X2303Y17174D01*
G01X2423Y17550D02*
G01X2423Y17174D01*
G01X2423Y17550D02*
G01X2673Y17174D01*
G01X2673Y17550D02*
G01X2673Y17174D01*
G01X4226Y23050D02*
G01X4226Y22396D01*
G01X3900Y22723D02*
G01X4555Y22723D01*
G01X8400Y22800D02*
G01X9055Y22800D01*
G54D35*
G01X19655Y4200D02*
G01X19960Y4200D01*
G01X20022Y4219D01*
G01X20064Y4261D01*
G01X20084Y4323D01*
G01X20084Y4363D01*
G01X20064Y4425D01*
G01X20022Y4465D01*
G01X19960Y4486D01*
G01X19655Y4486D01*
G01X19655Y4661D02*
G01X19655Y4886D01*
G01X19818Y4765D01*
G01X19818Y4826D01*
G01X19839Y4867D01*
G01X19859Y4886D01*
G01X19919Y4907D01*
G01X19960Y4907D01*
G01X20022Y4886D01*
G01X20064Y4846D01*
G01X20084Y4784D01*
G01X20084Y4723D01*
G01X20064Y4661D01*
G01X20043Y4642D01*
G01X20002Y4621D01*

%LPD*%
G36*
G01X30864Y1650D02*
G01X30853Y1588D01*
G01X30838Y1590D01*
G01X30822Y1594D01*
G01X30808Y1600D01*
G01X30794Y1607D01*
G01X30779Y1617D01*
G01X30766Y1629D01*
G01X30754Y1642D01*
G01X30743Y1657D01*
G01X30735Y1676D01*
G01X30728Y1696D01*
G01X30725Y1718D01*
G01X30723Y1742D01*
G01X30725Y1765D01*
G01X30728Y1788D01*
G01X30735Y1808D01*
G01X30743Y1826D01*
G01X30754Y1842D01*
G01X30766Y1855D01*
G01X30779Y1867D01*
G01X30794Y1878D01*
G01X30814Y1887D01*
G01X30834Y1893D01*
G01X30856Y1897D01*
G01X30878Y1898D01*
G01X30902Y1897D01*
G01X30925Y1892D01*
G01X30948Y1884D01*
G01X30972Y1873D01*
G01X31017Y1837D01*
G01X31072Y1778D01*
G01X31127Y1721D01*
G01X31173Y1686D01*
G01X31192Y1676D01*
G01X31212Y1669D01*
G01X31235Y1663D01*
G01X31260Y1659D01*
G01X31260Y1896D01*
G01X31318Y1896D01*
G01X31318Y1592D01*
G01X31317Y1592D01*
G01X31265Y1594D01*
G01X31220Y1600D01*
G01X31181Y1611D01*
G01X31147Y1626D01*
G01X31123Y1642D01*
G01X31096Y1665D01*
G01X31068Y1694D01*
G01X31038Y1730D01*
G01X30989Y1783D01*
G01X30950Y1815D01*
G01X30931Y1823D01*
G01X30914Y1830D01*
G01X30896Y1833D01*
G01X30878Y1834D01*
G01X30864Y1834D01*
G01X30849Y1831D01*
G01X30836Y1827D01*
G01X30823Y1821D01*
G01X30814Y1815D01*
G01X30806Y1808D01*
G01X30798Y1800D01*
G01X30793Y1790D01*
G01X30787Y1780D01*
G01X30784Y1768D01*
G01X30781Y1755D01*
G01X30781Y1742D01*
G01X30781Y1728D01*
G01X30783Y1717D01*
G01X30787Y1705D01*
G01X30792Y1696D01*
G01X30798Y1686D01*
G01X30806Y1678D01*
G01X30814Y1670D01*
G01X30823Y1663D01*
G01X30833Y1659D01*
G01X30843Y1655D01*
G01X30853Y1652D01*
G01X30864Y1650D01*
G37*

%LPC*%

%LPD*%
G36*
G01X31142Y1986D02*
G01X30906Y1986D01*
G01X30846Y1992D01*
G01X30797Y2011D01*
G01X30780Y2021D01*
G01X30765Y2034D01*
G01X30753Y2048D01*
G01X30743Y2063D01*
G01X30734Y2081D01*
G01X30728Y2101D01*
G01X30725Y2121D01*
G01X30723Y2144D01*
G01X30725Y2166D01*
G01X30728Y2186D01*
G01X30734Y2206D01*
G01X30743Y2223D01*
G01X30753Y2239D01*
G01X30765Y2253D01*
G01X30780Y2266D01*
G01X30797Y2276D01*
G01X30846Y2295D01*
G01X30906Y2301D01*
G01X31142Y2301D01*
G01X31201Y2295D01*
G01X31251Y2276D01*
G01X31263Y2269D01*
G01X31275Y2259D01*
G01X31285Y2250D01*
G01X31294Y2238D01*
G01X31297Y2234D01*
G01X31302Y2226D01*
G01X31305Y2223D01*
G01X31313Y2205D01*
G01X31319Y2186D01*
G01X31322Y2166D01*
G01X31323Y2144D01*
G01X31322Y2121D01*
G01X31319Y2101D01*
G01X31313Y2081D01*
G01X31305Y2063D01*
G01X31294Y2048D01*
G01X31281Y2034D01*
G01X31267Y2021D01*
G01X31251Y2011D01*
G01X31201Y1992D01*
G01X31142Y1986D01*
G37*

%LPC*%
G36*
G01X30882Y2051D02*
G01X30906Y2050D01*
G01X31142Y2050D01*
G01X31165Y2051D01*
G01X31186Y2054D01*
G01X31205Y2060D01*
G01X31222Y2067D01*
G01X31232Y2075D01*
G01X31241Y2082D01*
G01X31249Y2091D01*
G01X31256Y2101D01*
G01X31260Y2110D01*
G01X31264Y2120D01*
G01X31266Y2132D01*
G01X31267Y2144D01*
G01X31266Y2155D01*
G01X31264Y2167D01*
G01X31260Y2177D01*
G01X31256Y2186D01*
G01X31249Y2196D01*
G01X31241Y2205D01*
G01X31232Y2213D01*
G01X31222Y2219D01*
G01X31205Y2227D01*
G01X31186Y2233D01*
G01X31165Y2236D01*
G01X31142Y2238D01*
G01X30906Y2238D01*
G01X30882Y2236D01*
G01X30861Y2233D01*
G01X30842Y2227D01*
G01X30826Y2219D01*
G01X30815Y2213D01*
G01X30806Y2205D01*
G01X30798Y2196D01*
G01X30792Y2186D01*
G01X30787Y2177D01*
G01X30783Y2167D01*
G01X30781Y2155D01*
G01X30781Y2144D01*
G01X30781Y2132D01*
G01X30783Y2120D01*
G01X30787Y2110D01*
G01X30792Y2101D01*
G01X30798Y2091D01*
G01X30806Y2082D01*
G01X30815Y2075D01*
G01X30826Y2067D01*
G01X30842Y2060D01*
G01X30861Y2054D01*
G01X30882Y2051D01*
G37*

%LPD*%
G36*
G01X31034Y2097D02*
G01X31023Y2096D01*
G01X31013Y2097D01*
G01X31004Y2100D01*
G01X30996Y2104D01*
G01X30989Y2109D01*
G01X30983Y2116D01*
G01X30979Y2124D01*
G01X30976Y2133D01*
G01X30976Y2144D01*
G01X30976Y2154D01*
G01X30979Y2163D01*
G01X30983Y2171D01*
G01X30989Y2178D01*
G01X30996Y2183D01*
G01X31004Y2187D01*
G01X31013Y2190D01*
G01X31023Y2190D01*
G01X31034Y2190D01*
G01X31043Y2187D01*
G01X31051Y2183D01*
G01X31057Y2178D01*
G01X31063Y2171D01*
G01X31067Y2163D01*
G01X31070Y2154D01*
G01X31071Y2144D01*
G01X31070Y2133D01*
G01X31067Y2124D01*
G01X31063Y2116D01*
G01X31057Y2109D01*
G01X31051Y2104D01*
G01X31043Y2100D01*
G01X31034Y2097D01*
G37*

%LPC*%

%LPD*%
G36*
G01X30871Y2434D02*
G01X30822Y2398D01*
G01X30730Y2536D01*
G01X30730Y2600D01*
G01X31318Y2600D01*
G01X31318Y2536D01*
G01X30802Y2536D01*
G01X30871Y2434D01*
G37*

%LPC*%

%LPD*%
G36*
G01X31198Y2787D02*
G01X31178Y2786D01*
G01X31158Y2787D01*
G01X31138Y2791D01*
G01X31118Y2798D01*
G01X31097Y2807D01*
G01X31058Y2840D01*
G01X31015Y2892D01*
G01X30978Y2848D01*
G01X30943Y2821D01*
G01X30923Y2811D01*
G01X30903Y2803D01*
G01X30883Y2799D01*
G01X30863Y2798D01*
G01X30843Y2799D01*
G01X30823Y2802D01*
G01X30806Y2808D01*
G01X30789Y2817D01*
G01X30775Y2826D01*
G01X30763Y2836D01*
G01X30752Y2849D01*
G01X30743Y2863D01*
G01X30734Y2880D01*
G01X30728Y2900D01*
G01X30725Y2921D01*
G01X30723Y2944D01*
G01X30725Y2966D01*
G01X30728Y2987D01*
G01X30734Y3007D01*
G01X30743Y3025D01*
G01X30752Y3038D01*
G01X30763Y3051D01*
G01X30775Y3061D01*
G01X30789Y3071D01*
G01X30806Y3079D01*
G01X30823Y3085D01*
G01X30843Y3088D01*
G01X30863Y3090D01*
G01X30883Y3088D01*
G01X30903Y3084D01*
G01X30923Y3076D01*
G01X30943Y3067D01*
G01X30978Y3038D01*
G01X31015Y2994D01*
G01X31058Y3047D01*
G01X31097Y3080D01*
G01X31118Y3089D01*
G01X31138Y3096D01*
G01X31158Y3100D01*
G01X31178Y3101D01*
G01X31198Y3100D01*
G01X31218Y3097D01*
G01X31236Y3091D01*
G01X31253Y3082D01*
G01X31268Y3073D01*
G01X31281Y3062D01*
G01X31292Y3048D01*
G01X31302Y3034D01*
G01X31312Y3014D01*
G01X31318Y2992D01*
G01X31322Y2969D01*
G01X31323Y2944D01*
G01X31322Y2918D01*
G01X31318Y2894D01*
G01X31312Y2873D01*
G01X31302Y2853D01*
G01X31292Y2838D01*
G01X31281Y2825D01*
G01X31268Y2814D01*
G01X31253Y2805D01*
G01X31236Y2796D01*
G01X31218Y2790D01*
G01X31198Y2787D01*
G37*

%LPC*%
G36*
G01X31165Y2851D02*
G01X31180Y2850D01*
G01X31191Y2850D01*
G01X31203Y2852D01*
G01X31214Y2856D01*
G01X31225Y2861D01*
G01X31234Y2867D01*
G01X31241Y2873D01*
G01X31248Y2881D01*
G01X31253Y2890D01*
G01X31259Y2901D01*
G01X31263Y2915D01*
G01X31266Y2928D01*
G01X31267Y2944D01*
G01X31266Y2959D01*
G01X31263Y2973D01*
G01X31259Y2986D01*
G01X31253Y2998D01*
G01X31248Y3006D01*
G01X31241Y3014D01*
G01X31234Y3021D01*
G01X31225Y3026D01*
G01X31214Y3031D01*
G01X31203Y3035D01*
G01X31191Y3037D01*
G01X31180Y3038D01*
G01X31165Y3036D01*
G01X31152Y3034D01*
G01X31138Y3028D01*
G01X31123Y3021D01*
G01X31089Y2993D01*
G01X31052Y2944D01*
G01X31089Y2894D01*
G01X31123Y2865D01*
G01X31138Y2859D01*
G01X31152Y2853D01*
G01X31165Y2851D01*
G37*
G36*
G01X30850Y2862D02*
G01X30863Y2861D01*
G01X30877Y2863D01*
G01X30890Y2865D01*
G01X30904Y2871D01*
G01X30918Y2878D01*
G01X30933Y2888D01*
G01X30948Y2903D01*
G01X30965Y2921D01*
G01X30981Y2944D01*
G01X30965Y2966D01*
G01X30948Y2984D01*
G01X30933Y2999D01*
G01X30918Y3009D01*
G01X30904Y3017D01*
G01X30890Y3021D01*
G01X30877Y3025D01*
G01X30863Y3026D01*
G01X30850Y3025D01*
G01X30839Y3023D01*
G01X30828Y3019D01*
G01X30818Y3013D01*
G01X30810Y3009D01*
G01X30802Y3003D01*
G01X30797Y2996D01*
G01X30792Y2988D01*
G01X30787Y2978D01*
G01X30783Y2967D01*
G01X30781Y2956D01*
G01X30781Y2944D01*
G01X30781Y2931D01*
G01X30783Y2919D01*
G01X30787Y2909D01*
G01X30792Y2900D01*
G01X30797Y2892D01*
G01X30802Y2884D01*
G01X30810Y2878D01*
G01X30818Y2873D01*
G01X30828Y2868D01*
G01X30839Y2865D01*
G01X30850Y2862D01*
G37*

%LPD*%
G36*
G01X31318Y3592D02*
G01X30730Y3592D01*
G01X30730Y3655D01*
G01X31002Y3655D01*
G01X30952Y3698D01*
G01X30905Y3736D01*
G01X30859Y3769D01*
G01X30815Y3796D01*
G01X30789Y3811D01*
G01X30766Y3821D01*
G01X30746Y3826D01*
G01X30730Y3828D01*
G01X30730Y3896D01*
G01X30773Y3886D01*
G01X30831Y3857D01*
G01X30891Y3820D01*
G01X30952Y3775D01*
G01X31018Y3804D01*
G01X31077Y3830D01*
G01X31131Y3852D01*
G01X31180Y3870D01*
G01X31222Y3884D01*
G01X31260Y3894D01*
G01X31292Y3900D01*
G01X31318Y3901D01*
G01X31318Y3838D01*
G01X31286Y3834D01*
G01X31247Y3826D01*
G01X31199Y3811D01*
G01X31143Y3790D01*
G01X31079Y3764D01*
G01X31006Y3732D01*
G01X31048Y3695D01*
G01X31090Y3655D01*
G01X31318Y3655D01*
G01X31318Y3592D01*
G37*

%LPC*%

%LPD*%
G36*
G01X31318Y4015D02*
G01X30730Y4015D01*
G01X30730Y4296D01*
G01X30788Y4296D01*
G01X30788Y4080D01*
G01X30972Y4080D01*
G01X30972Y4250D01*
G01X31028Y4250D01*
G01X31028Y4080D01*
G01X31260Y4080D01*
G01X31260Y4296D01*
G01X31318Y4296D01*
G01X31318Y4015D01*
G37*

%LPC*%

%LPD*%
G36*
G01X30788Y4392D02*
G01X30730Y4392D01*
G01X30730Y4455D01*
G01X30788Y4455D01*
G01X30818Y4456D01*
G01X30852Y4459D01*
G01X30889Y4463D01*
G01X30930Y4469D01*
G01X30974Y4478D01*
G01X31021Y4487D01*
G01X31072Y4499D01*
G01X31126Y4512D01*
G01X31184Y4527D01*
G01X31244Y4544D01*
G01X31184Y4560D01*
G01X31126Y4575D01*
G01X31072Y4588D01*
G01X31021Y4600D01*
G01X30974Y4609D01*
G01X30930Y4617D01*
G01X30889Y4623D01*
G01X30852Y4628D01*
G01X30818Y4631D01*
G01X30788Y4632D01*
G01X30730Y4632D01*
G01X30730Y4696D01*
G01X30788Y4696D01*
G01X30822Y4694D01*
G01X30860Y4691D01*
G01X30902Y4685D01*
G01X30949Y4676D01*
G01X31000Y4665D01*
G01X31055Y4652D01*
G01X31114Y4637D01*
G01X31178Y4619D01*
G01X31246Y4598D01*
G01X31318Y4576D01*
G01X31318Y4511D01*
G01X31246Y4489D01*
G01X31178Y4468D01*
G01X31114Y4450D01*
G01X31055Y4435D01*
G01X31000Y4421D01*
G01X30949Y4411D01*
G01X30902Y4402D01*
G01X30860Y4396D01*
G01X30822Y4393D01*
G01X30788Y4392D01*
G37*

%LPC*%

%LPD*%
G36*
G01X30788Y4832D02*
G01X30730Y4832D01*
G01X30730Y5055D01*
G01X30788Y5055D01*
G01X30788Y4976D01*
G01X31260Y4976D01*
G01X31260Y5055D01*
G01X31318Y5055D01*
G01X31318Y4832D01*
G01X31260Y4832D01*
G01X31260Y4911D01*
G01X30788Y4911D01*
G01X30788Y4832D01*
G37*

%LPC*%

%LPD*%
G36*
G01X31318Y5192D02*
G01X30730Y5192D01*
G01X30730Y5280D01*
G01X31210Y5434D01*
G01X31136Y5434D01*
G01X31126Y5433D01*
G01X31118Y5433D01*
G01X31111Y5432D01*
G01X31103Y5432D01*
G01X31029Y5432D01*
G01X30968Y5432D01*
G01X30730Y5432D01*
G01X30730Y5496D01*
G01X31318Y5496D01*
G01X31318Y5407D01*
G01X30838Y5253D01*
G01X30936Y5253D01*
G01X30948Y5254D01*
G01X30955Y5255D01*
G01X30989Y5255D01*
G01X30998Y5255D01*
G01X31007Y5255D01*
G01X31015Y5255D01*
G01X31318Y5255D01*
G01X31318Y5192D01*
G37*

%LPC*%

%LPD*%
G36*
G01X31210Y5988D02*
G01X31193Y5988D01*
G01X31185Y6051D01*
G01X31190Y6051D01*
G01X31200Y6051D01*
G01X31209Y6053D01*
G01X31218Y6056D01*
G01X31227Y6061D01*
G01X31235Y6066D01*
G01X31242Y6072D01*
G01X31248Y6080D01*
G01X31253Y6088D01*
G01X31259Y6100D01*
G01X31263Y6112D01*
G01X31266Y6126D01*
G01X31267Y6142D01*
G01X31266Y6155D01*
G01X31264Y6167D01*
G01X31260Y6179D01*
G01X31255Y6190D01*
G01X31248Y6198D01*
G01X31242Y6207D01*
G01X31234Y6213D01*
G01X31226Y6219D01*
G01X31214Y6225D01*
G01X31202Y6228D01*
G01X31190Y6231D01*
G01X31177Y6232D01*
G01X31164Y6231D01*
G01X31152Y6228D01*
G01X31139Y6224D01*
G01X31126Y6217D01*
G01X31091Y6186D01*
G01X31055Y6132D01*
G01X31029Y6091D01*
G01X31004Y6058D01*
G01X30979Y6032D01*
G01X30955Y6015D01*
G01X30934Y6005D01*
G01X30914Y5997D01*
G01X30892Y5993D01*
G01X30871Y5992D01*
G01X30850Y5993D01*
G01X30830Y5996D01*
G01X30810Y6003D01*
G01X30793Y6011D01*
G01X30778Y6021D01*
G01X30765Y6033D01*
G01X30753Y6046D01*
G01X30743Y6061D01*
G01X30735Y6080D01*
G01X30728Y6100D01*
G01X30725Y6122D01*
G01X30723Y6146D01*
G01X30725Y6171D01*
G01X30729Y6195D01*
G01X30735Y6217D01*
G01X30744Y6236D01*
G01X30754Y6250D01*
G01X30764Y6263D01*
G01X30777Y6273D01*
G01X30790Y6282D01*
G01X30805Y6290D01*
G01X30821Y6295D01*
G01X30837Y6298D01*
G01X30853Y6300D01*
G01X30863Y6236D01*
G01X30856Y6236D01*
G01X30847Y6236D01*
G01X30838Y6234D01*
G01X30829Y6231D01*
G01X30821Y6226D01*
G01X30813Y6221D01*
G01X30805Y6215D01*
G01X30799Y6207D01*
G01X30793Y6198D01*
G01X30788Y6187D01*
G01X30784Y6175D01*
G01X30781Y6161D01*
G01X30781Y6146D01*
G01X30781Y6132D01*
G01X30784Y6119D01*
G01X30787Y6108D01*
G01X30793Y6098D01*
G01X30798Y6088D01*
G01X30805Y6080D01*
G01X30813Y6073D01*
G01X30822Y6067D01*
G01X30833Y6062D01*
G01X30844Y6059D01*
G01X30857Y6056D01*
G01X30869Y6055D01*
G01X30882Y6056D01*
G01X30896Y6059D01*
G01X30909Y6063D01*
G01X30922Y6069D01*
G01X30956Y6101D01*
G01X30993Y6155D01*
G01X31018Y6196D01*
G01X31043Y6229D01*
G01X31068Y6255D01*
G01X31093Y6273D01*
G01X31113Y6282D01*
G01X31134Y6290D01*
G01X31155Y6294D01*
G01X31177Y6296D01*
G01X31197Y6294D01*
G01X31218Y6290D01*
G01X31236Y6284D01*
G01X31255Y6276D01*
G01X31269Y6266D01*
G01X31282Y6254D01*
G01X31294Y6241D01*
G01X31303Y6226D01*
G01X31312Y6207D01*
G01X31318Y6187D01*
G01X31322Y6165D01*
G01X31323Y6142D01*
G01X31322Y6116D01*
G01X31318Y6092D01*
G01X31312Y6071D01*
G01X31302Y6051D01*
G01X31293Y6037D01*
G01X31282Y6025D01*
G01X31270Y6014D01*
G01X31256Y6005D01*
G01X31242Y5997D01*
G01X31226Y5992D01*
G01X31210Y5988D01*
G37*

%LPC*%

%LPD*%
G36*
G01X31318Y6392D02*
G01X30730Y6392D01*
G01X30730Y6461D01*
G01X31047Y6544D01*
G01X30730Y6626D01*
G01X30730Y6696D01*
G01X31318Y6696D01*
G01X31318Y6632D01*
G01X31181Y6632D01*
G01X31161Y6632D01*
G01X31141Y6632D01*
G01X31119Y6632D01*
G01X31111Y6634D01*
G01X31098Y6634D01*
G01X31083Y6634D01*
G01X31068Y6634D01*
G01X31052Y6634D01*
G01X31044Y6636D01*
G01X31037Y6636D01*
G01X31030Y6636D01*
G01X31022Y6637D01*
G01X31014Y6638D01*
G01X30984Y6638D01*
G01X30981Y6638D01*
G01X30977Y6638D01*
G01X30973Y6638D01*
G01X30968Y6638D01*
G01X30960Y6640D01*
G01X30948Y6640D01*
G01X30948Y6640D01*
G01X30947Y6640D01*
G01X30947Y6640D01*
G01X30932Y6640D01*
G01X30925Y6642D01*
G01X30915Y6642D01*
G01X30906Y6642D01*
G01X30897Y6642D01*
G01X30889Y6642D01*
G01X30881Y6642D01*
G01X30878Y6643D01*
G01X30875Y6643D01*
G01X30872Y6644D01*
G01X30860Y6644D01*
G01X30852Y6644D01*
G01X30847Y6644D01*
G01X30843Y6644D01*
G01X31140Y6567D01*
G01X31140Y6519D01*
G01X30843Y6442D01*
G01X30851Y6442D01*
G01X30854Y6443D01*
G01X30860Y6444D01*
G01X30873Y6444D01*
G01X30876Y6444D01*
G01X30878Y6444D01*
G01X30881Y6444D01*
G01X30892Y6444D01*
G01X30895Y6445D01*
G01X30898Y6445D01*
G01X30902Y6446D01*
G01X30925Y6446D01*
G01X30932Y6446D01*
G01X30947Y6446D01*
G01X30947Y6447D01*
G01X30948Y6447D01*
G01X30948Y6448D01*
G01X30960Y6448D01*
G01X30968Y6448D01*
G01X30972Y6448D01*
G01X30977Y6449D01*
G01X30985Y6450D01*
G01X30993Y6450D01*
G01X31007Y6450D01*
G01X31021Y6451D01*
G01X31033Y6451D01*
G01X31044Y6451D01*
G01X31052Y6453D01*
G01X31068Y6453D01*
G01X31083Y6453D01*
G01X31098Y6453D01*
G01X31111Y6453D01*
G01X31119Y6455D01*
G01X31141Y6455D01*
G01X31161Y6455D01*
G01X31181Y6455D01*
G01X31318Y6455D01*
G01X31318Y6392D01*
G37*

%LPC*%

%LPD*%
G36*
G01X30788Y6832D02*
G01X30730Y6832D01*
G01X30730Y7055D01*
G01X30788Y7055D01*
G01X30788Y6976D01*
G01X31260Y6976D01*
G01X31260Y7055D01*
G01X31318Y7055D01*
G01X31318Y6832D01*
G01X31260Y6832D01*
G01X31260Y6911D01*
G01X30788Y6911D01*
G01X30788Y6832D01*
G37*

%LPC*%

%LPD*%
G36*
G01X30788Y7192D02*
G01X30730Y7192D01*
G01X30730Y7496D01*
G01X30788Y7496D01*
G01X30788Y7376D01*
G01X31318Y7376D01*
G01X31318Y7311D01*
G01X30788Y7311D01*
G01X30788Y7192D01*
G37*

%LPC*%

%LPD*%
G36*
G01X31318Y7592D02*
G01X30730Y7592D01*
G01X30730Y7655D01*
G01X30980Y7655D01*
G01X30980Y7832D01*
G01X30730Y7832D01*
G01X30730Y7896D01*
G01X31318Y7896D01*
G01X31318Y7832D01*
G01X31038Y7832D01*
G01X31038Y7655D01*
G01X31318Y7655D01*
G01X31318Y7592D01*
G37*

%LPC*%

%LPD*%
G36*
G01X31210Y11178D02*
G01X31193Y11176D01*
G01X31181Y11238D01*
G01X31194Y11240D01*
G01X31205Y11243D01*
G01X31216Y11248D01*
G01X31226Y11253D01*
G01X31235Y11259D01*
G01X31243Y11265D01*
G01X31250Y11273D01*
G01X31256Y11282D01*
G01X31260Y11291D01*
G01X31264Y11302D01*
G01X31266Y11313D01*
G01X31267Y11325D01*
G01X31266Y11336D01*
G01X31264Y11348D01*
G01X31260Y11357D01*
G01X31256Y11367D01*
G01X31250Y11376D01*
G01X31243Y11384D01*
G01X31235Y11390D01*
G01X31226Y11396D01*
G01X31212Y11403D01*
G01X31197Y11408D01*
G01X31180Y11411D01*
G01X31161Y11411D01*
G01X30788Y11411D01*
G01X30788Y11303D01*
G01X30730Y11303D01*
G01X30730Y11476D01*
G01X31161Y11476D01*
G01X31188Y11474D01*
G01X31213Y11470D01*
G01X31235Y11463D01*
G01X31256Y11453D01*
G01X31271Y11443D01*
G01X31284Y11432D01*
G01X31295Y11418D01*
G01X31305Y11403D01*
G01X31313Y11386D01*
G01X31319Y11367D01*
G01X31322Y11347D01*
G01X31323Y11325D01*
G01X31323Y11315D01*
G01X31322Y11295D01*
G01X31318Y11277D01*
G01X31312Y11261D01*
G01X31305Y11246D01*
G01X31295Y11231D01*
G01X31284Y11217D01*
G01X31271Y11206D01*
G01X31256Y11196D01*
G01X31241Y11188D01*
G01X31226Y11182D01*
G01X31210Y11178D01*
G37*

%LPC*%

%LPD*%
G36*
G01X31318Y11592D02*
G01X30730Y11592D01*
G01X30730Y11732D01*
G01X30731Y11753D01*
G01X30734Y11773D01*
G01X30740Y11792D01*
G01X30748Y11809D01*
G01X30758Y11823D01*
G01X30769Y11836D01*
G01X30782Y11847D01*
G01X30797Y11857D01*
G01X30816Y11866D01*
G01X30837Y11873D01*
G01X30859Y11876D01*
G01X30884Y11878D01*
G01X30906Y11876D01*
G01X30926Y11873D01*
G01X30944Y11867D01*
G01X30960Y11859D01*
G01X30974Y11850D01*
G01X30986Y11840D01*
G01X30997Y11827D01*
G01X31006Y11813D01*
G01X31007Y11812D01*
G01X31008Y11811D01*
G01X31009Y11809D01*
G01X31010Y11807D01*
G01X31012Y11814D01*
G01X31015Y11820D01*
G01X31018Y11826D01*
G01X31021Y11832D01*
G01X31031Y11847D01*
G01X31043Y11861D01*
G01X31056Y11873D01*
G01X31072Y11882D01*
G01X31089Y11891D01*
G01X31108Y11897D01*
G01X31129Y11900D01*
G01X31152Y11901D01*
G01X31177Y11900D01*
G01X31200Y11896D01*
G01X31221Y11890D01*
G01X31240Y11880D01*
G01X31257Y11870D01*
G01X31272Y11857D01*
G01X31285Y11843D01*
G01X31296Y11826D01*
G01X31312Y11783D01*
G01X31318Y11732D01*
G01X31318Y11592D01*
G37*

%LPC*%
G36*
G01X31040Y11732D02*
G01X31040Y11655D01*
G01X31260Y11655D01*
G01X31260Y11732D01*
G01X31259Y11748D01*
G01X31256Y11763D01*
G01X31252Y11777D01*
G01X31247Y11790D01*
G01X31239Y11800D01*
G01X31231Y11809D01*
G01X31222Y11817D01*
G01X31211Y11823D01*
G01X31198Y11830D01*
G01X31184Y11834D01*
G01X31168Y11837D01*
G01X31151Y11838D01*
G01X31133Y11837D01*
G01X31117Y11834D01*
G01X31102Y11830D01*
G01X31089Y11823D01*
G01X31078Y11816D01*
G01X31069Y11808D01*
G01X31061Y11799D01*
G01X31055Y11790D01*
G01X31048Y11777D01*
G01X31044Y11763D01*
G01X31041Y11748D01*
G01X31040Y11732D01*
G37*
G36*
G01X30788Y11732D02*
G01X30788Y11655D01*
G01X30984Y11655D01*
G01X30984Y11732D01*
G01X30983Y11743D01*
G01X30981Y11753D01*
G01X30977Y11763D01*
G01X30972Y11773D01*
G01X30967Y11781D01*
G01X30961Y11788D01*
G01X30953Y11795D01*
G01X30944Y11801D01*
G01X30931Y11806D01*
G01X30917Y11810D01*
G01X30901Y11813D01*
G01X30885Y11813D01*
G01X30868Y11813D01*
G01X30852Y11810D01*
G01X30838Y11806D01*
G01X30826Y11801D01*
G01X30817Y11794D01*
G01X30810Y11788D01*
G01X30803Y11780D01*
G01X30797Y11771D01*
G01X30793Y11763D01*
G01X30790Y11753D01*
G01X30788Y11743D01*
G01X30788Y11732D01*
G37*

%LPD*%
G36*
G01X31161Y11986D02*
G01X30885Y11986D01*
G01X30860Y11987D01*
G01X30836Y11991D01*
G01X30814Y11997D01*
G01X30794Y12007D01*
G01X30779Y12017D01*
G01X30766Y12029D01*
G01X30754Y12042D01*
G01X30743Y12057D01*
G01X30735Y12076D01*
G01X30728Y12097D01*
G01X30725Y12119D01*
G01X30723Y12144D01*
G01X30725Y12168D01*
G01X30728Y12190D01*
G01X30735Y12211D01*
G01X30743Y12230D01*
G01X30754Y12245D01*
G01X30766Y12258D01*
G01X30780Y12270D01*
G01X30796Y12280D01*
G01X30809Y12287D01*
G01X30823Y12292D01*
G01X30838Y12297D01*
G01X30853Y12300D01*
G01X30864Y12238D01*
G01X30854Y12235D01*
G01X30843Y12232D01*
G01X30834Y12228D01*
G01X30825Y12223D01*
G01X30815Y12217D01*
G01X30806Y12210D01*
G01X30799Y12201D01*
G01X30793Y12192D01*
G01X30787Y12182D01*
G01X30784Y12170D01*
G01X30781Y12157D01*
G01X30781Y12144D01*
G01X30781Y12130D01*
G01X30784Y12117D01*
G01X30787Y12105D01*
G01X30793Y12094D01*
G01X30798Y12086D01*
G01X30806Y12077D01*
G01X30814Y12070D01*
G01X30823Y12063D01*
G01X30837Y12057D01*
G01X30852Y12053D01*
G01X30868Y12050D01*
G01X30885Y12050D01*
G01X31161Y12050D01*
G01X31179Y12050D01*
G01X31195Y12053D01*
G01X31210Y12057D01*
G01X31223Y12063D01*
G01X31233Y12070D01*
G01X31241Y12077D01*
G01X31248Y12086D01*
G01X31255Y12094D01*
G01X31260Y12105D01*
G01X31264Y12117D01*
G01X31266Y12130D01*
G01X31267Y12144D01*
G01X31266Y12157D01*
G01X31264Y12170D01*
G01X31260Y12182D01*
G01X31255Y12192D01*
G01X31248Y12201D01*
G01X31241Y12210D01*
G01X31232Y12217D01*
G01X31222Y12223D01*
G01X31213Y12228D01*
G01X31203Y12232D01*
G01X31193Y12235D01*
G01X31182Y12238D01*
G01X31193Y12300D01*
G01X31209Y12297D01*
G01X31224Y12292D01*
G01X31238Y12287D01*
G01X31252Y12280D01*
G01X31267Y12270D01*
G01X31281Y12258D01*
G01X31293Y12245D01*
G01X31303Y12230D01*
G01X31312Y12211D01*
G01X31318Y12190D01*
G01X31322Y12168D01*
G01X31323Y12144D01*
G01X31322Y12119D01*
G01X31318Y12097D01*
G01X31312Y12076D01*
G01X31303Y12057D01*
G01X31293Y12042D01*
G01X31281Y12029D01*
G01X31268Y12017D01*
G01X31252Y12007D01*
G01X31232Y11997D01*
G01X31211Y11991D01*
G01X31187Y11987D01*
G01X31161Y11986D01*
G37*

%LPC*%

%LPD*%
G36*
G01X30788Y12792D02*
G01X30730Y12792D01*
G01X30730Y13096D01*
G01X30788Y13096D01*
G01X30788Y12976D01*
G01X31318Y12976D01*
G01X31318Y12911D01*
G01X30788Y12911D01*
G01X30788Y12792D01*
G37*

%LPC*%

%LPD*%
G36*
G01X30864Y13250D02*
G01X30853Y13188D01*
G01X30838Y13190D01*
G01X30822Y13194D01*
G01X30808Y13200D01*
G01X30794Y13207D01*
G01X30779Y13217D01*
G01X30766Y13229D01*
G01X30754Y13242D01*
G01X30743Y13257D01*
G01X30735Y13276D01*
G01X30728Y13296D01*
G01X30725Y13318D01*
G01X30723Y13342D01*
G01X30725Y13365D01*
G01X30728Y13388D01*
G01X30735Y13408D01*
G01X30743Y13426D01*
G01X30754Y13442D01*
G01X30766Y13455D01*
G01X30779Y13467D01*
G01X30794Y13478D01*
G01X30814Y13487D01*
G01X30834Y13493D01*
G01X30856Y13497D01*
G01X30878Y13498D01*
G01X30902Y13497D01*
G01X30925Y13492D01*
G01X30948Y13484D01*
G01X30972Y13473D01*
G01X31017Y13437D01*
G01X31072Y13378D01*
G01X31127Y13321D01*
G01X31173Y13286D01*
G01X31192Y13276D01*
G01X31212Y13269D01*
G01X31235Y13263D01*
G01X31260Y13259D01*
G01X31260Y13496D01*
G01X31318Y13496D01*
G01X31318Y13192D01*
G01X31317Y13192D01*
G01X31265Y13194D01*
G01X31220Y13200D01*
G01X31181Y13211D01*
G01X31147Y13226D01*
G01X31123Y13242D01*
G01X31096Y13265D01*
G01X31068Y13294D01*
G01X31038Y13330D01*
G01X30989Y13383D01*
G01X30950Y13415D01*
G01X30931Y13423D01*
G01X30914Y13430D01*
G01X30896Y13433D01*
G01X30878Y13434D01*
G01X30864Y13434D01*
G01X30849Y13431D01*
G01X30836Y13427D01*
G01X30823Y13421D01*
G01X30814Y13415D01*
G01X30806Y13408D01*
G01X30798Y13400D01*
G01X30793Y13390D01*
G01X30787Y13380D01*
G01X30784Y13368D01*
G01X30781Y13355D01*
G01X30781Y13342D01*
G01X30781Y13328D01*
G01X30783Y13317D01*
G01X30787Y13305D01*
G01X30792Y13296D01*
G01X30798Y13286D01*
G01X30806Y13278D01*
G01X30814Y13270D01*
G01X30823Y13263D01*
G01X30833Y13259D01*
G01X30843Y13255D01*
G01X30853Y13252D01*
G01X30864Y13250D01*
G37*

%LPC*%

%LPD*%
G36*
G01X31139Y13586D02*
G01X31082Y13586D01*
G01X30730Y13765D01*
G01X30730Y13842D01*
G01X31082Y13842D01*
G01X31082Y13896D01*
G01X31139Y13896D01*
G01X31139Y13842D01*
G01X31318Y13842D01*
G01X31318Y13778D01*
G01X31139Y13778D01*
G01X31139Y13586D01*
G37*

%LPC*%
G36*
G01X30827Y13778D02*
G01X31082Y13648D01*
G01X31082Y13778D01*
G01X30827Y13778D01*
G37*

%LPD*%
G36*
G01X31208Y13991D02*
G01X31193Y13988D01*
G01X31172Y14046D01*
G01X31185Y14050D01*
G01X31197Y14054D01*
G01X31209Y14059D01*
G01X31219Y14065D01*
G01X31231Y14071D01*
G01X31240Y14080D01*
G01X31249Y14088D01*
G01X31256Y14098D01*
G01X31260Y14108D01*
G01X31264Y14119D01*
G01X31266Y14130D01*
G01X31267Y14142D01*
G01X31266Y14153D01*
G01X31264Y14164D01*
G01X31260Y14174D01*
G01X31256Y14184D01*
G01X31249Y14194D01*
G01X31241Y14203D01*
G01X31231Y14211D01*
G01X31221Y14217D01*
G01X31202Y14226D01*
G01X31180Y14232D01*
G01X31156Y14236D01*
G01X31130Y14238D01*
G01X31102Y14236D01*
G01X31078Y14232D01*
G01X31056Y14226D01*
G01X31036Y14217D01*
G01X31026Y14211D01*
G01X31017Y14203D01*
G01X31009Y14194D01*
G01X31002Y14184D01*
G01X30998Y14176D01*
G01X30995Y14166D01*
G01X30993Y14156D01*
G01X30993Y14144D01*
G01X30993Y14133D01*
G01X30995Y14123D01*
G01X30998Y14113D01*
G01X31002Y14103D01*
G01X31009Y14094D01*
G01X31017Y14085D01*
G01X31027Y14077D01*
G01X31038Y14069D01*
G01X31045Y14066D01*
G01X31053Y14062D01*
G01X31062Y14059D01*
G01X31072Y14057D01*
G01X31046Y14000D01*
G01X30730Y14000D01*
G01X30730Y14280D01*
G01X30788Y14280D01*
G01X30788Y14063D01*
G01X30957Y14063D01*
G01X30956Y14066D01*
G01X30955Y14067D01*
G01X30953Y14069D01*
G01X30946Y14086D01*
G01X30940Y14104D01*
G01X30937Y14124D01*
G01X30935Y14144D01*
G01X30937Y14165D01*
G01X30940Y14185D01*
G01X30946Y14203D01*
G01X30953Y14221D01*
G01X30964Y14236D01*
G01X30977Y14250D01*
G01X30992Y14263D01*
G01X31009Y14273D01*
G01X31063Y14294D01*
G01X31128Y14301D01*
G01X31194Y14294D01*
G01X31248Y14273D01*
G01X31266Y14263D01*
G01X31281Y14250D01*
G01X31294Y14236D01*
G01X31305Y14219D01*
G01X31313Y14202D01*
G01X31319Y14183D01*
G01X31322Y14163D01*
G01X31323Y14142D01*
G01X31322Y14120D01*
G01X31319Y14100D01*
G01X31313Y14081D01*
G01X31305Y14063D01*
G01X31294Y14047D01*
G01X31281Y14033D01*
G01X31266Y14020D01*
G01X31248Y14009D01*
G01X31236Y14002D01*
G01X31222Y13996D01*
G01X31208Y13991D01*
G37*

%LPC*%

%LPD*%
G36*
G01X30788Y14832D02*
G01X30730Y14832D01*
G01X30730Y15055D01*
G01X30788Y15055D01*
G01X30788Y14976D01*
G01X31260Y14976D01*
G01X31260Y15055D01*
G01X31318Y15055D01*
G01X31318Y14832D01*
G01X31260Y14832D01*
G01X31260Y14911D01*
G01X30788Y14911D01*
G01X30788Y14832D01*
G37*

%LPC*%

%LPD*%
G36*
G01X31318Y15192D02*
G01X30730Y15192D01*
G01X30730Y15344D01*
G01X30731Y15368D01*
G01X30735Y15390D01*
G01X30741Y15410D01*
G01X30750Y15428D01*
G01X30760Y15443D01*
G01X30772Y15457D01*
G01X30786Y15469D01*
G01X30802Y15480D01*
G01X30846Y15496D01*
G01X30897Y15501D01*
G01X30949Y15496D01*
G01X30993Y15480D01*
G01X31009Y15469D01*
G01X31022Y15457D01*
G01X31035Y15443D01*
G01X31044Y15428D01*
G01X31049Y15421D01*
G01X31052Y15413D01*
G01X31056Y15405D01*
G01X31059Y15398D01*
G01X31074Y15408D01*
G01X31089Y15418D01*
G01X31105Y15428D01*
G01X31121Y15438D01*
G01X31176Y15465D01*
G01X31227Y15486D01*
G01X31274Y15498D01*
G01X31318Y15501D01*
G01X31318Y15438D01*
G01X31280Y15434D01*
G01X31240Y15424D01*
G01X31196Y15407D01*
G01X31150Y15382D01*
G01X31107Y15356D01*
G01X31065Y15326D01*
G01X31065Y15255D01*
G01X31318Y15255D01*
G01X31318Y15192D01*
G37*

%LPC*%
G36*
G01X30788Y15344D02*
G01X30788Y15255D01*
G01X31007Y15255D01*
G01X31007Y15344D01*
G01X31007Y15357D01*
G01X31005Y15369D01*
G01X31001Y15380D01*
G01X30997Y15390D01*
G01X30990Y15400D01*
G01X30983Y15408D01*
G01X30974Y15416D01*
G01X30964Y15423D01*
G01X30949Y15429D01*
G01X30934Y15434D01*
G01X30916Y15436D01*
G01X30897Y15438D01*
G01X30879Y15436D01*
G01X30861Y15434D01*
G01X30846Y15429D01*
G01X30831Y15423D01*
G01X30821Y15416D01*
G01X30812Y15408D01*
G01X30805Y15400D01*
G01X30798Y15390D01*
G01X30794Y15380D01*
G01X30790Y15369D01*
G01X30788Y15357D01*
G01X30788Y15344D01*
G37*

%LPD*%
G36*
G01X31161Y15586D02*
G01X30885Y15586D01*
G01X30860Y15587D01*
G01X30836Y15591D01*
G01X30815Y15597D01*
G01X30796Y15607D01*
G01X30780Y15617D01*
G01X30766Y15629D01*
G01X30754Y15642D01*
G01X30743Y15657D01*
G01X30735Y15676D01*
G01X30728Y15697D01*
G01X30725Y15719D01*
G01X30723Y15744D01*
G01X30725Y15768D01*
G01X30728Y15790D01*
G01X30735Y15811D01*
G01X30743Y15830D01*
G01X30754Y15845D01*
G01X30766Y15858D01*
G01X30780Y15870D01*
G01X30796Y15880D01*
G01X30815Y15890D01*
G01X30836Y15896D01*
G01X30860Y15900D01*
G01X30885Y15901D01*
G01X31161Y15901D01*
G01X31187Y15900D01*
G01X31210Y15896D01*
G01X31232Y15890D01*
G01X31252Y15880D01*
G01X31267Y15870D01*
G01X31281Y15858D01*
G01X31293Y15845D01*
G01X31303Y15830D01*
G01X31312Y15811D01*
G01X31318Y15790D01*
G01X31322Y15768D01*
G01X31323Y15744D01*
G01X31322Y15719D01*
G01X31318Y15697D01*
G01X31312Y15676D01*
G01X31303Y15657D01*
G01X31293Y15642D01*
G01X31281Y15629D01*
G01X31267Y15617D01*
G01X31252Y15607D01*
G01X31232Y15597D01*
G01X31210Y15591D01*
G01X31187Y15587D01*
G01X31161Y15586D01*
G37*

%LPC*%
G36*
G01X30868Y15650D02*
G01X30885Y15650D01*
G01X31161Y15650D01*
G01X31179Y15650D01*
G01X31195Y15653D01*
G01X31210Y15657D01*
G01X31223Y15663D01*
G01X31233Y15670D01*
G01X31241Y15677D01*
G01X31248Y15686D01*
G01X31255Y15694D01*
G01X31260Y15705D01*
G01X31264Y15717D01*
G01X31266Y15730D01*
G01X31267Y15744D01*
G01X31266Y15757D01*
G01X31264Y15770D01*
G01X31260Y15782D01*
G01X31255Y15792D01*
G01X31248Y15801D01*
G01X31241Y15810D01*
G01X31233Y15817D01*
G01X31223Y15823D01*
G01X31210Y15830D01*
G01X31195Y15834D01*
G01X31179Y15837D01*
G01X31161Y15838D01*
G01X30885Y15838D01*
G01X30868Y15837D01*
G01X30852Y15834D01*
G01X30837Y15830D01*
G01X30823Y15823D01*
G01X30814Y15817D01*
G01X30806Y15810D01*
G01X30798Y15801D01*
G01X30793Y15792D01*
G01X30787Y15782D01*
G01X30784Y15770D01*
G01X30781Y15757D01*
G01X30781Y15744D01*
G01X30781Y15730D01*
G01X30784Y15717D01*
G01X30787Y15705D01*
G01X30793Y15694D01*
G01X30798Y15686D01*
G01X30806Y15677D01*
G01X30814Y15670D01*
G01X30823Y15663D01*
G01X30837Y15657D01*
G01X30852Y15653D01*
G01X30868Y15650D01*
G37*

%LPD*%
G36*
G01X31318Y15992D02*
G01X30730Y15992D01*
G01X30730Y16080D01*
G01X31210Y16234D01*
G01X31136Y16234D01*
G01X31126Y16233D01*
G01X31118Y16233D01*
G01X31111Y16232D01*
G01X31103Y16232D01*
G01X31029Y16232D01*
G01X30968Y16232D01*
G01X30730Y16232D01*
G01X30730Y16296D01*
G01X31318Y16296D01*
G01X31318Y16207D01*
G01X30838Y16053D01*
G01X30936Y16053D01*
G01X30948Y16054D01*
G01X30955Y16055D01*
G01X30989Y16055D01*
G01X30998Y16055D01*
G01X31007Y16055D01*
G01X31015Y16055D01*
G01X31318Y16055D01*
G01X31318Y15992D01*
G37*

%LPC*%

%LPD*%
G36*
G01X31161Y16786D02*
G01X30885Y16786D01*
G01X30860Y16787D01*
G01X30836Y16791D01*
G01X30814Y16797D01*
G01X30794Y16807D01*
G01X30779Y16817D01*
G01X30766Y16829D01*
G01X30754Y16842D01*
G01X30743Y16857D01*
G01X30735Y16876D01*
G01X30728Y16897D01*
G01X30725Y16919D01*
G01X30723Y16944D01*
G01X30725Y16968D01*
G01X30728Y16990D01*
G01X30735Y17011D01*
G01X30743Y17030D01*
G01X30754Y17045D01*
G01X30766Y17058D01*
G01X30780Y17070D01*
G01X30796Y17080D01*
G01X30809Y17087D01*
G01X30823Y17092D01*
G01X30838Y17097D01*
G01X30853Y17100D01*
G01X30864Y17038D01*
G01X30854Y17035D01*
G01X30843Y17032D01*
G01X30834Y17028D01*
G01X30825Y17023D01*
G01X30815Y17017D01*
G01X30806Y17010D01*
G01X30799Y17002D01*
G01X30793Y16992D01*
G01X30787Y16982D01*
G01X30784Y16970D01*
G01X30781Y16957D01*
G01X30781Y16944D01*
G01X30781Y16930D01*
G01X30784Y16917D01*
G01X30787Y16905D01*
G01X30793Y16894D01*
G01X30798Y16886D01*
G01X30806Y16877D01*
G01X30814Y16870D01*
G01X30823Y16863D01*
G01X30837Y16857D01*
G01X30852Y16853D01*
G01X30868Y16850D01*
G01X30885Y16850D01*
G01X31161Y16850D01*
G01X31179Y16850D01*
G01X31195Y16853D01*
G01X31210Y16857D01*
G01X31223Y16863D01*
G01X31233Y16870D01*
G01X31241Y16877D01*
G01X31248Y16886D01*
G01X31255Y16894D01*
G01X31260Y16905D01*
G01X31264Y16917D01*
G01X31266Y16930D01*
G01X31267Y16944D01*
G01X31266Y16957D01*
G01X31264Y16970D01*
G01X31260Y16982D01*
G01X31255Y16992D01*
G01X31248Y17002D01*
G01X31241Y17010D01*
G01X31232Y17017D01*
G01X31222Y17023D01*
G01X31213Y17028D01*
G01X31203Y17032D01*
G01X31193Y17035D01*
G01X31182Y17038D01*
G01X31193Y17100D01*
G01X31209Y17097D01*
G01X31224Y17092D01*
G01X31238Y17087D01*
G01X31252Y17080D01*
G01X31267Y17070D01*
G01X31281Y17058D01*
G01X31293Y17045D01*
G01X31303Y17030D01*
G01X31312Y17011D01*
G01X31318Y16990D01*
G01X31322Y16968D01*
G01X31323Y16944D01*
G01X31322Y16919D01*
G01X31318Y16897D01*
G01X31312Y16876D01*
G01X31303Y16857D01*
G01X31293Y16842D01*
G01X31281Y16829D01*
G01X31268Y16817D01*
G01X31252Y16807D01*
G01X31232Y16797D01*
G01X31211Y16791D01*
G01X31187Y16787D01*
G01X31161Y16786D01*
G37*

%LPC*%

%LPD*%
G36*
G01X31161Y17186D02*
G01X30885Y17186D01*
G01X30860Y17187D01*
G01X30836Y17191D01*
G01X30815Y17197D01*
G01X30796Y17207D01*
G01X30780Y17217D01*
G01X30766Y17229D01*
G01X30754Y17242D01*
G01X30743Y17257D01*
G01X30735Y17276D01*
G01X30728Y17297D01*
G01X30725Y17319D01*
G01X30723Y17344D01*
G01X30725Y17368D01*
G01X30728Y17390D01*
G01X30735Y17411D01*
G01X30743Y17430D01*
G01X30754Y17445D01*
G01X30766Y17458D01*
G01X30780Y17470D01*
G01X30796Y17480D01*
G01X30815Y17490D01*
G01X30836Y17496D01*
G01X30860Y17500D01*
G01X30885Y17502D01*
G01X31161Y17502D01*
G01X31187Y17500D01*
G01X31210Y17496D01*
G01X31232Y17490D01*
G01X31252Y17480D01*
G01X31267Y17470D01*
G01X31281Y17458D01*
G01X31293Y17445D01*
G01X31303Y17430D01*
G01X31312Y17411D01*
G01X31318Y17390D01*
G01X31322Y17368D01*
G01X31323Y17344D01*
G01X31322Y17319D01*
G01X31318Y17297D01*
G01X31312Y17276D01*
G01X31303Y17257D01*
G01X31293Y17242D01*
G01X31281Y17229D01*
G01X31267Y17217D01*
G01X31252Y17207D01*
G01X31232Y17197D01*
G01X31210Y17191D01*
G01X31187Y17187D01*
G01X31161Y17186D01*
G37*

%LPC*%
G36*
G01X30868Y17250D02*
G01X30885Y17250D01*
G01X31161Y17250D01*
G01X31179Y17250D01*
G01X31195Y17253D01*
G01X31210Y17257D01*
G01X31223Y17263D01*
G01X31233Y17270D01*
G01X31241Y17277D01*
G01X31248Y17286D01*
G01X31255Y17294D01*
G01X31260Y17305D01*
G01X31264Y17317D01*
G01X31266Y17330D01*
G01X31267Y17344D01*
G01X31266Y17357D01*
G01X31264Y17370D01*
G01X31260Y17382D01*
G01X31255Y17392D01*
G01X31248Y17402D01*
G01X31241Y17410D01*
G01X31233Y17417D01*
G01X31223Y17423D01*
G01X31210Y17430D01*
G01X31195Y17434D01*
G01X31179Y17437D01*
G01X31161Y17438D01*
G01X30885Y17438D01*
G01X30868Y17437D01*
G01X30852Y17434D01*
G01X30837Y17430D01*
G01X30823Y17423D01*
G01X30814Y17417D01*
G01X30806Y17410D01*
G01X30798Y17402D01*
G01X30793Y17392D01*
G01X30787Y17382D01*
G01X30784Y17370D01*
G01X30781Y17357D01*
G01X30781Y17344D01*
G01X30781Y17330D01*
G01X30784Y17317D01*
G01X30787Y17305D01*
G01X30793Y17294D01*
G01X30798Y17286D01*
G01X30806Y17277D01*
G01X30814Y17270D01*
G01X30823Y17263D01*
G01X30837Y17257D01*
G01X30852Y17253D01*
G01X30868Y17250D01*
G37*

%LPD*%
G36*
G01X31318Y17592D02*
G01X30730Y17592D01*
G01X30730Y17680D01*
G01X31210Y17834D01*
G01X31136Y17834D01*
G01X31126Y17833D01*
G01X31118Y17833D01*
G01X31111Y17832D01*
G01X31103Y17832D01*
G01X31029Y17832D01*
G01X30968Y17832D01*
G01X30730Y17832D01*
G01X30730Y17896D01*
G01X31318Y17896D01*
G01X31318Y17807D01*
G01X30838Y17653D01*
G01X30936Y17653D01*
G01X30948Y17654D01*
G01X30955Y17655D01*
G01X30989Y17655D01*
G01X30998Y17655D01*
G01X31007Y17655D01*
G01X31015Y17655D01*
G01X31318Y17655D01*
G01X31318Y17592D01*
G37*

%LPC*%

%LPD*%
G36*
G01X30788Y17992D02*
G01X30730Y17992D01*
G01X30730Y18296D01*
G01X30788Y18296D01*
G01X30788Y18176D01*
G01X31318Y18176D01*
G01X31318Y18111D01*
G01X30788Y18111D01*
G01X30788Y17992D01*
G37*

%LPC*%

%LPD*%
G36*
G01X31318Y18392D02*
G01X30730Y18392D01*
G01X30730Y18544D01*
G01X30731Y18568D01*
G01X30735Y18590D01*
G01X30741Y18610D01*
G01X30750Y18628D01*
G01X30760Y18643D01*
G01X30772Y18657D01*
G01X30786Y18669D01*
G01X30802Y18680D01*
G01X30846Y18696D01*
G01X30897Y18702D01*
G01X30949Y18696D01*
G01X30993Y18680D01*
G01X31009Y18669D01*
G01X31022Y18657D01*
G01X31035Y18643D01*
G01X31044Y18628D01*
G01X31049Y18621D01*
G01X31052Y18613D01*
G01X31056Y18605D01*
G01X31059Y18598D01*
G01X31074Y18608D01*
G01X31089Y18618D01*
G01X31105Y18628D01*
G01X31121Y18638D01*
G01X31176Y18665D01*
G01X31227Y18686D01*
G01X31274Y18698D01*
G01X31318Y18702D01*
G01X31318Y18638D01*
G01X31280Y18634D01*
G01X31240Y18624D01*
G01X31196Y18607D01*
G01X31150Y18582D01*
G01X31107Y18556D01*
G01X31065Y18527D01*
G01X31065Y18455D01*
G01X31318Y18455D01*
G01X31318Y18392D01*
G37*

%LPC*%
G36*
G01X30788Y18544D02*
G01X30788Y18455D01*
G01X31007Y18455D01*
G01X31007Y18544D01*
G01X31007Y18557D01*
G01X31005Y18569D01*
G01X31001Y18580D01*
G01X30997Y18590D01*
G01X30990Y18600D01*
G01X30983Y18608D01*
G01X30974Y18616D01*
G01X30964Y18623D01*
G01X30949Y18629D01*
G01X30934Y18634D01*
G01X30916Y18636D01*
G01X30897Y18638D01*
G01X30879Y18636D01*
G01X30861Y18634D01*
G01X30846Y18629D01*
G01X30831Y18623D01*
G01X30821Y18616D01*
G01X30812Y18608D01*
G01X30805Y18600D01*
G01X30798Y18590D01*
G01X30794Y18580D01*
G01X30790Y18569D01*
G01X30788Y18557D01*
G01X30788Y18544D01*
G37*

%LPD*%
G36*
G01X31161Y18786D02*
G01X30885Y18786D01*
G01X30860Y18787D01*
G01X30836Y18791D01*
G01X30815Y18797D01*
G01X30796Y18807D01*
G01X30780Y18817D01*
G01X30766Y18829D01*
G01X30754Y18842D01*
G01X30743Y18857D01*
G01X30735Y18876D01*
G01X30728Y18897D01*
G01X30725Y18919D01*
G01X30723Y18944D01*
G01X30725Y18968D01*
G01X30728Y18990D01*
G01X30735Y19011D01*
G01X30743Y19030D01*
G01X30754Y19045D01*
G01X30766Y19058D01*
G01X30780Y19070D01*
G01X30796Y19080D01*
G01X30815Y19090D01*
G01X30836Y19096D01*
G01X30860Y19100D01*
G01X30885Y19102D01*
G01X31161Y19102D01*
G01X31187Y19100D01*
G01X31210Y19096D01*
G01X31232Y19090D01*
G01X31252Y19080D01*
G01X31267Y19070D01*
G01X31281Y19058D01*
G01X31293Y19045D01*
G01X31303Y19030D01*
G01X31312Y19011D01*
G01X31318Y18990D01*
G01X31322Y18968D01*
G01X31323Y18944D01*
G01X31322Y18919D01*
G01X31318Y18897D01*
G01X31312Y18876D01*
G01X31303Y18857D01*
G01X31293Y18842D01*
G01X31281Y18829D01*
G01X31267Y18817D01*
G01X31252Y18807D01*
G01X31232Y18797D01*
G01X31210Y18791D01*
G01X31187Y18787D01*
G01X31161Y18786D01*
G37*

%LPC*%
G36*
G01X30868Y18850D02*
G01X30885Y18850D01*
G01X31161Y18850D01*
G01X31179Y18850D01*
G01X31195Y18853D01*
G01X31210Y18857D01*
G01X31223Y18863D01*
G01X31233Y18870D01*
G01X31241Y18877D01*
G01X31248Y18886D01*
G01X31255Y18894D01*
G01X31260Y18905D01*
G01X31264Y18917D01*
G01X31266Y18930D01*
G01X31267Y18944D01*
G01X31266Y18957D01*
G01X31264Y18970D01*
G01X31260Y18982D01*
G01X31255Y18992D01*
G01X31248Y19002D01*
G01X31241Y19010D01*
G01X31233Y19017D01*
G01X31223Y19023D01*
G01X31210Y19030D01*
G01X31195Y19034D01*
G01X31179Y19037D01*
G01X31161Y19038D01*
G01X30885Y19038D01*
G01X30868Y19037D01*
G01X30852Y19034D01*
G01X30837Y19030D01*
G01X30823Y19023D01*
G01X30814Y19017D01*
G01X30806Y19010D01*
G01X30798Y19002D01*
G01X30793Y18992D01*
G01X30787Y18982D01*
G01X30784Y18970D01*
G01X30781Y18957D01*
G01X30781Y18944D01*
G01X30781Y18930D01*
G01X30784Y18917D01*
G01X30787Y18905D01*
G01X30793Y18894D01*
G01X30798Y18886D01*
G01X30806Y18877D01*
G01X30814Y18870D01*
G01X30823Y18863D01*
G01X30837Y18857D01*
G01X30852Y18853D01*
G01X30868Y18850D01*
G37*

%LPD*%
G36*
G01X31318Y19215D02*
G01X30730Y19215D01*
G01X30730Y19280D01*
G01X31260Y19280D01*
G01X31260Y19502D01*
G01X31318Y19502D01*
G01X31318Y19215D01*
G37*

%LPC*%

%LPD*%
G36*
G01X31318Y19615D02*
G01X30730Y19615D01*
G01X30730Y19680D01*
G01X31260Y19680D01*
G01X31260Y19902D01*
G01X31318Y19902D01*
G01X31318Y19615D01*
G37*

%LPC*%

%LPD*%
G36*
G01X31318Y20015D02*
G01X30730Y20015D01*
G01X30730Y20296D01*
G01X30788Y20296D01*
G01X30788Y20080D01*
G01X30972Y20080D01*
G01X30972Y20250D01*
G01X31028Y20250D01*
G01X31028Y20080D01*
G01X31260Y20080D01*
G01X31260Y20296D01*
G01X31318Y20296D01*
G01X31318Y20015D01*
G37*

%LPC*%

%LPD*%
G36*
G01X31318Y20392D02*
G01X30730Y20392D01*
G01X30730Y20544D01*
G01X30731Y20568D01*
G01X30735Y20590D01*
G01X30741Y20610D01*
G01X30750Y20628D01*
G01X30760Y20643D01*
G01X30772Y20657D01*
G01X30786Y20669D01*
G01X30802Y20680D01*
G01X30846Y20696D01*
G01X30897Y20702D01*
G01X30949Y20696D01*
G01X30993Y20680D01*
G01X31009Y20669D01*
G01X31022Y20657D01*
G01X31035Y20643D01*
G01X31044Y20628D01*
G01X31049Y20621D01*
G01X31052Y20613D01*
G01X31056Y20605D01*
G01X31059Y20598D01*
G01X31074Y20608D01*
G01X31089Y20618D01*
G01X31105Y20628D01*
G01X31121Y20638D01*
G01X31176Y20665D01*
G01X31227Y20686D01*
G01X31274Y20698D01*
G01X31318Y20702D01*
G01X31318Y20638D01*
G01X31280Y20634D01*
G01X31240Y20624D01*
G01X31196Y20607D01*
G01X31150Y20582D01*
G01X31107Y20556D01*
G01X31065Y20527D01*
G01X31065Y20455D01*
G01X31318Y20455D01*
G01X31318Y20392D01*
G37*

%LPC*%
G36*
G01X30788Y20544D02*
G01X30788Y20455D01*
G01X31007Y20455D01*
G01X31007Y20544D01*
G01X31007Y20557D01*
G01X31005Y20569D01*
G01X31001Y20580D01*
G01X30997Y20590D01*
G01X30990Y20600D01*
G01X30983Y20608D01*
G01X30974Y20616D01*
G01X30964Y20623D01*
G01X30949Y20629D01*
G01X30934Y20634D01*
G01X30916Y20636D01*
G01X30897Y20638D01*
G01X30879Y20636D01*
G01X30861Y20634D01*
G01X30846Y20629D01*
G01X30831Y20623D01*
G01X30821Y20616D01*
G01X30812Y20608D01*
G01X30805Y20600D01*
G01X30798Y20590D01*
G01X30794Y20580D01*
G01X30790Y20569D01*
G01X30788Y20557D01*
G01X30788Y20544D01*
G37*

%LPD*%
G36*
G01X31318Y21192D02*
G01X30730Y21192D01*
G01X30730Y21344D01*
G01X30731Y21368D01*
G01X30735Y21390D01*
G01X30741Y21410D01*
G01X30750Y21428D01*
G01X30760Y21443D01*
G01X30772Y21457D01*
G01X30786Y21469D01*
G01X30802Y21480D01*
G01X30846Y21496D01*
G01X30897Y21502D01*
G01X30949Y21496D01*
G01X30993Y21480D01*
G01X31009Y21469D01*
G01X31022Y21457D01*
G01X31035Y21443D01*
G01X31044Y21428D01*
G01X31049Y21421D01*
G01X31052Y21413D01*
G01X31056Y21405D01*
G01X31059Y21398D01*
G01X31074Y21408D01*
G01X31089Y21418D01*
G01X31105Y21428D01*
G01X31121Y21438D01*
G01X31176Y21465D01*
G01X31227Y21486D01*
G01X31274Y21498D01*
G01X31318Y21502D01*
G01X31318Y21438D01*
G01X31280Y21434D01*
G01X31240Y21424D01*
G01X31196Y21407D01*
G01X31150Y21382D01*
G01X31107Y21356D01*
G01X31065Y21327D01*
G01X31065Y21255D01*
G01X31318Y21255D01*
G01X31318Y21192D01*
G37*

%LPC*%
G36*
G01X30788Y21344D02*
G01X30788Y21255D01*
G01X31007Y21255D01*
G01X31007Y21344D01*
G01X31007Y21357D01*
G01X31005Y21369D01*
G01X31001Y21380D01*
G01X30997Y21390D01*
G01X30990Y21400D01*
G01X30983Y21408D01*
G01X30974Y21416D01*
G01X30964Y21423D01*
G01X30949Y21429D01*
G01X30934Y21434D01*
G01X30916Y21436D01*
G01X30897Y21438D01*
G01X30879Y21436D01*
G01X30861Y21434D01*
G01X30846Y21429D01*
G01X30831Y21423D01*
G01X30821Y21416D01*
G01X30812Y21408D01*
G01X30805Y21400D01*
G01X30798Y21390D01*
G01X30794Y21380D01*
G01X30790Y21369D01*
G01X30788Y21357D01*
G01X30788Y21344D01*
G37*

%LPD*%
G36*
G01X31318Y21615D02*
G01X30730Y21615D01*
G01X30730Y21896D01*
G01X30788Y21896D01*
G01X30788Y21680D01*
G01X30972Y21680D01*
G01X30972Y21850D01*
G01X31028Y21850D01*
G01X31028Y21680D01*
G01X31260Y21680D01*
G01X31260Y21896D01*
G01X31318Y21896D01*
G01X31318Y21615D01*
G37*

%LPC*%

%LPD*%
G36*
G01X30788Y21992D02*
G01X30730Y21992D01*
G01X30730Y22055D01*
G01X30788Y22055D01*
G01X30818Y22056D01*
G01X30852Y22059D01*
G01X30889Y22063D01*
G01X30930Y22069D01*
G01X30974Y22078D01*
G01X31021Y22087D01*
G01X31072Y22099D01*
G01X31126Y22112D01*
G01X31184Y22127D01*
G01X31244Y22144D01*
G01X31184Y22160D01*
G01X31126Y22175D01*
G01X31072Y22188D01*
G01X31021Y22200D01*
G01X30974Y22209D01*
G01X30930Y22217D01*
G01X30889Y22223D01*
G01X30852Y22228D01*
G01X30818Y22231D01*
G01X30788Y22232D01*
G01X30730Y22232D01*
G01X30730Y22296D01*
G01X30788Y22296D01*
G01X30822Y22294D01*
G01X30860Y22291D01*
G01X30902Y22285D01*
G01X30949Y22276D01*
G01X31000Y22265D01*
G01X31055Y22252D01*
G01X31114Y22237D01*
G01X31178Y22219D01*
G01X31246Y22198D01*
G01X31318Y22176D01*
G01X31318Y22111D01*
G01X31246Y22089D01*
G01X31178Y22068D01*
G01X31114Y22050D01*
G01X31055Y22035D01*
G01X31000Y22021D01*
G01X30949Y22011D01*
G01X30902Y22002D01*
G01X30860Y21996D01*
G01X30822Y21993D01*
G01X30788Y21992D01*
G37*

%LPC*%

%LPD*%
G36*
G01X31271Y22482D02*
G01X31261Y22482D01*
G01X31252Y22482D01*
G01X31243Y22484D01*
G01X31235Y22486D01*
G01X31227Y22490D01*
G01X31221Y22494D01*
G01X31216Y22498D01*
G01X31211Y22504D01*
G01X31207Y22509D01*
G01X31204Y22517D01*
G01X31202Y22525D01*
G01X31200Y22534D01*
G01X31200Y22544D01*
G01X31200Y22553D01*
G01X31202Y22562D01*
G01X31204Y22570D01*
G01X31207Y22578D01*
G01X31211Y22583D01*
G01X31216Y22588D01*
G01X31221Y22593D01*
G01X31227Y22598D01*
G01X31235Y22601D01*
G01X31243Y22603D01*
G01X31252Y22605D01*
G01X31261Y22605D01*
G01X31271Y22605D01*
G01X31280Y22603D01*
G01X31288Y22601D01*
G01X31296Y22598D01*
G01X31302Y22593D01*
G01X31307Y22588D01*
G01X31312Y22583D01*
G01X31315Y22578D01*
G01X31319Y22570D01*
G01X31322Y22562D01*
G01X31323Y22553D01*
G01X31323Y22544D01*
G01X31323Y22534D01*
G01X31322Y22525D01*
G01X31319Y22517D01*
G01X31315Y22509D01*
G01X31312Y22504D01*
G01X31307Y22498D01*
G01X31302Y22494D01*
G01X31296Y22490D01*
G01X31288Y22486D01*
G01X31280Y22484D01*
G01X31271Y22482D01*
G37*

%LPC*%

%LPD*%
G36*
G01X31208Y23184D02*
G01X31193Y23182D01*
G01X31180Y23244D01*
G01X31190Y23246D01*
G01X31201Y23248D01*
G01X31210Y23253D01*
G01X31219Y23257D01*
G01X31230Y23264D01*
G01X31239Y23272D01*
G01X31247Y23280D01*
G01X31253Y23290D01*
G01X31259Y23303D01*
G01X31263Y23315D01*
G01X31266Y23329D01*
G01X31267Y23344D01*
G01X31266Y23358D01*
G01X31263Y23371D01*
G01X31259Y23384D01*
G01X31253Y23396D01*
G01X31247Y23406D01*
G01X31239Y23415D01*
G01X31230Y23423D01*
G01X31219Y23430D01*
G01X31206Y23436D01*
G01X31192Y23441D01*
G01X31177Y23444D01*
G01X31160Y23444D01*
G01X31144Y23444D01*
G01X31129Y23440D01*
G01X31114Y23436D01*
G01X31100Y23428D01*
G01X31087Y23420D01*
G01X31075Y23410D01*
G01X31065Y23399D01*
G01X31056Y23386D01*
G01X31042Y23344D01*
G01X31038Y23286D01*
G01X30980Y23286D01*
G01X30978Y23315D01*
G01X30975Y23341D01*
G01X30970Y23362D01*
G01X30963Y23380D01*
G01X30955Y23391D01*
G01X30945Y23401D01*
G01X30935Y23410D01*
G01X30923Y23417D01*
G01X30911Y23424D01*
G01X30898Y23428D01*
G01X30885Y23431D01*
G01X30872Y23432D01*
G01X30858Y23431D01*
G01X30845Y23428D01*
G01X30832Y23424D01*
G01X30821Y23419D01*
G01X30812Y23413D01*
G01X30804Y23406D01*
G01X30797Y23398D01*
G01X30792Y23390D01*
G01X30787Y23380D01*
G01X30783Y23369D01*
G01X30781Y23357D01*
G01X30781Y23344D01*
G01X30781Y23332D01*
G01X30783Y23319D01*
G01X30787Y23309D01*
G01X30792Y23298D01*
G01X30797Y23290D01*
G01X30805Y23282D01*
G01X30813Y23276D01*
G01X30822Y23269D01*
G01X30831Y23265D01*
G01X30841Y23261D01*
G01X30851Y23259D01*
G01X30863Y23257D01*
G01X30853Y23194D01*
G01X30837Y23196D01*
G01X30821Y23201D01*
G01X30806Y23206D01*
G01X30792Y23213D01*
G01X30777Y23223D01*
G01X30764Y23234D01*
G01X30753Y23247D01*
G01X30743Y23261D01*
G01X30735Y23280D01*
G01X30728Y23300D01*
G01X30725Y23321D01*
G01X30723Y23344D01*
G01X30725Y23367D01*
G01X30728Y23389D01*
G01X30735Y23408D01*
G01X30743Y23426D01*
G01X30753Y23440D01*
G01X30764Y23454D01*
G01X30777Y23465D01*
G01X30792Y23475D01*
G01X30810Y23484D01*
G01X30829Y23490D01*
G01X30850Y23494D01*
G01X30871Y23496D01*
G01X30890Y23494D01*
G01X30909Y23491D01*
G01X30927Y23485D01*
G01X30943Y23477D01*
G01X30960Y23466D01*
G01X30974Y23453D01*
G01X30987Y23439D01*
G01X30997Y23423D01*
G01X31001Y23417D01*
G01X31003Y23411D01*
G01X31006Y23404D01*
G01X31009Y23398D01*
G01X31011Y23406D01*
G01X31015Y23415D01*
G01X31018Y23422D01*
G01X31022Y23430D01*
G01X31033Y23447D01*
G01X31047Y23462D01*
G01X31062Y23476D01*
G01X31080Y23486D01*
G01X31098Y23496D01*
G01X31118Y23503D01*
G01X31139Y23507D01*
G01X31161Y23509D01*
G01X31185Y23507D01*
G01X31207Y23503D01*
G01X31228Y23496D01*
G01X31248Y23486D01*
G01X31265Y23475D01*
G01X31280Y23462D01*
G01X31292Y23448D01*
G01X31302Y23432D01*
G01X31312Y23413D01*
G01X31318Y23391D01*
G01X31322Y23368D01*
G01X31323Y23344D01*
G01X31322Y23318D01*
G01X31318Y23295D01*
G01X31312Y23273D01*
G01X31302Y23253D01*
G01X31292Y23238D01*
G01X31280Y23224D01*
G01X31265Y23212D01*
G01X31248Y23202D01*
G01X31236Y23194D01*
G01X31222Y23188D01*
G01X31208Y23184D01*
G37*

%LPC*%

%LPD*%
G54D11*
G01X26100Y2015D02*
G01X26863Y2015D01*
G01X26100Y2015D02*
G01X26100Y2342D01*
G01X26135Y2451D01*
G01X26172Y2488D01*
G01X26244Y2525D01*
G01X26318Y2525D01*
G01X26390Y2488D01*
G01X26427Y2451D01*
G01X26463Y2342D01*
G01X26463Y2015D01*
G01X26463Y2271D02*
G01X26863Y2525D01*
G01X26100Y3884D02*
G01X26863Y3884D01*
G01X26100Y3884D02*
G01X26100Y4211D01*
G01X26135Y4321D01*
G01X26172Y4357D01*
G01X26244Y4394D01*
G01X26318Y4394D01*
G01X26390Y4357D01*
G01X26427Y4321D01*
G01X26463Y4211D01*
G01X26463Y3884D02*
G01X26463Y4211D01*
G01X26500Y4321D01*
G01X26535Y4357D01*
G01X26609Y4394D01*
G01X26718Y4394D01*
G01X26790Y4357D01*
G01X26827Y4321D01*
G01X26863Y4211D01*
G01X26863Y3884D01*
G01X26281Y6300D02*
G01X26209Y6263D01*
G01X26135Y6190D01*
G01X26100Y6117D01*
G01X26100Y5971D01*
G01X26135Y5900D01*
G01X26209Y5826D01*
G01X26281Y5790D01*
G01X26390Y5753D01*
G01X26572Y5753D01*
G01X26681Y5790D01*
G01X26753Y5826D01*
G01X26827Y5900D01*
G01X26863Y5971D01*
G01X26863Y6117D01*
G01X26827Y6190D01*
G01X26753Y6263D01*
G01X26681Y6300D01*
G01X26572Y6300D01*
G01X26572Y6117D02*
G01X26572Y6300D01*

%LPD*%
G36*
G01X5159Y8024D02*
G01X5146Y8023D01*
G01X5132Y8024D01*
G01X5119Y8026D01*
G01X5107Y8030D01*
G01X5096Y8036D01*
G01X5086Y8042D01*
G01X5078Y8050D01*
G01X5069Y8060D01*
G01X5063Y8071D01*
G01X5058Y8079D01*
G01X5055Y8087D01*
G01X5052Y8096D01*
G01X5050Y8105D01*
G01X5086Y8119D01*
G01X5088Y8110D01*
G01X5091Y8103D01*
G01X5094Y8095D01*
G01X5098Y8088D01*
G01X5102Y8082D01*
G01X5107Y8076D01*
G01X5112Y8071D01*
G01X5119Y8067D01*
G01X5125Y8063D01*
G01X5131Y8061D01*
G01X5138Y8060D01*
G01X5146Y8059D01*
G01X5153Y8060D01*
G01X5159Y8061D01*
G01X5166Y8063D01*
G01X5171Y8067D01*
G01X5178Y8071D01*
G01X5183Y8076D01*
G01X5188Y8082D01*
G01X5192Y8088D01*
G01X5198Y8100D01*
G01X5202Y8114D01*
G01X5205Y8129D01*
G01X5205Y8146D01*
G01X5205Y8162D01*
G01X5202Y8178D01*
G01X5198Y8191D01*
G01X5192Y8203D01*
G01X5188Y8210D01*
G01X5184Y8216D01*
G01X5178Y8221D01*
G01X5173Y8225D01*
G01X5167Y8227D01*
G01X5161Y8229D01*
G01X5154Y8230D01*
G01X5148Y8230D01*
G01X5140Y8230D01*
G01X5134Y8229D01*
G01X5127Y8227D01*
G01X5121Y8225D01*
G01X5116Y8221D01*
G01X5110Y8215D01*
G01X5105Y8209D01*
G01X5101Y8203D01*
G01X5098Y8198D01*
G01X5096Y8193D01*
G01X5094Y8187D01*
G01X5092Y8182D01*
G01X5057Y8198D01*
G01X5057Y8396D01*
G01X5232Y8396D01*
G01X5232Y8359D01*
G01X5096Y8359D01*
G01X5096Y8253D01*
G01X5098Y8253D01*
G01X5098Y8254D01*
G01X5101Y8255D01*
G01X5111Y8260D01*
G01X5122Y8264D01*
G01X5134Y8266D01*
G01X5148Y8267D01*
G01X5161Y8266D01*
G01X5173Y8263D01*
G01X5184Y8260D01*
G01X5194Y8255D01*
G01X5205Y8248D01*
G01X5213Y8240D01*
G01X5221Y8231D01*
G01X5228Y8221D01*
G01X5236Y8205D01*
G01X5241Y8187D01*
G01X5244Y8167D01*
G01X5246Y8146D01*
G01X5244Y8124D01*
G01X5241Y8104D01*
G01X5236Y8086D01*
G01X5228Y8071D01*
G01X5221Y8060D01*
G01X5213Y8050D01*
G01X5205Y8042D01*
G01X5194Y8036D01*
G01X5184Y8030D01*
G01X5172Y8026D01*
G01X5159Y8024D01*
G37*

%LPC*%

%LPD*%
G36*
G01X3911Y8024D02*
G01X3896Y8023D01*
G01X3882Y8024D01*
G01X3868Y8027D01*
G01X3855Y8031D01*
G01X3844Y8036D01*
G01X3834Y8043D01*
G01X3826Y8051D01*
G01X3818Y8059D01*
G01X3811Y8069D01*
G01X3805Y8081D01*
G01X3801Y8095D01*
G01X3798Y8109D01*
G01X3798Y8126D01*
G01X3798Y8298D01*
G01X3798Y8313D01*
G01X3801Y8328D01*
G01X3805Y8342D01*
G01X3811Y8355D01*
G01X3818Y8364D01*
G01X3826Y8373D01*
G01X3834Y8380D01*
G01X3844Y8386D01*
G01X3855Y8392D01*
G01X3868Y8396D01*
G01X3882Y8399D01*
G01X3896Y8400D01*
G01X3911Y8399D01*
G01X3926Y8396D01*
G01X3938Y8392D01*
G01X3951Y8386D01*
G01X3960Y8380D01*
G01X3968Y8373D01*
G01X3976Y8364D01*
G01X3982Y8355D01*
G01X3986Y8346D01*
G01X3990Y8337D01*
G01X3992Y8327D01*
G01X3994Y8317D01*
G01X3955Y8311D01*
G01X3954Y8317D01*
G01X3952Y8324D01*
G01X3950Y8330D01*
G01X3946Y8336D01*
G01X3943Y8342D01*
G01X3938Y8347D01*
G01X3933Y8352D01*
G01X3928Y8355D01*
G01X3921Y8359D01*
G01X3913Y8361D01*
G01X3905Y8363D01*
G01X3896Y8363D01*
G01X3888Y8363D01*
G01X3880Y8361D01*
G01X3873Y8359D01*
G01X3867Y8355D01*
G01X3861Y8352D01*
G01X3855Y8347D01*
G01X3851Y8342D01*
G01X3846Y8336D01*
G01X3842Y8328D01*
G01X3840Y8319D01*
G01X3838Y8309D01*
G01X3838Y8298D01*
G01X3838Y8126D01*
G01X3838Y8115D01*
G01X3840Y8104D01*
G01X3842Y8095D01*
G01X3846Y8086D01*
G01X3851Y8081D01*
G01X3855Y8076D01*
G01X3861Y8071D01*
G01X3867Y8067D01*
G01X3873Y8064D01*
G01X3880Y8061D01*
G01X3888Y8060D01*
G01X3896Y8059D01*
G01X3904Y8060D01*
G01X3911Y8061D01*
G01X3918Y8063D01*
G01X3923Y8067D01*
G01X3929Y8070D01*
G01X3934Y8075D01*
G01X3939Y8080D01*
G01X3942Y8086D01*
G01X3946Y8094D01*
G01X3949Y8103D01*
G01X3951Y8114D01*
G01X3951Y8126D01*
G01X3951Y8192D01*
G01X3896Y8192D01*
G01X3896Y8228D01*
G01X3992Y8228D01*
G01X3992Y8126D01*
G01X3991Y8109D01*
G01X3988Y8094D01*
G01X3984Y8080D01*
G01X3978Y8067D01*
G01X3971Y8058D01*
G01X3964Y8050D01*
G01X3956Y8042D01*
G01X3946Y8036D01*
G01X3936Y8030D01*
G01X3923Y8026D01*
G01X3911Y8024D01*
G37*

%LPC*%

%LPD*%
G36*
G01X3161Y8024D02*
G01X3146Y8023D01*
G01X3132Y8024D01*
G01X3118Y8027D01*
G01X3105Y8031D01*
G01X3094Y8036D01*
G01X3084Y8043D01*
G01X3076Y8051D01*
G01X3068Y8059D01*
G01X3061Y8069D01*
G01X3055Y8081D01*
G01X3051Y8095D01*
G01X3048Y8109D01*
G01X3048Y8126D01*
G01X3048Y8298D01*
G01X3048Y8313D01*
G01X3051Y8328D01*
G01X3055Y8342D01*
G01X3061Y8355D01*
G01X3068Y8364D01*
G01X3076Y8373D01*
G01X3084Y8380D01*
G01X3094Y8386D01*
G01X3105Y8392D01*
G01X3118Y8396D01*
G01X3132Y8399D01*
G01X3146Y8400D01*
G01X3161Y8399D01*
G01X3176Y8396D01*
G01X3188Y8392D01*
G01X3201Y8386D01*
G01X3210Y8380D01*
G01X3218Y8373D01*
G01X3226Y8364D01*
G01X3232Y8355D01*
G01X3236Y8346D01*
G01X3240Y8337D01*
G01X3242Y8327D01*
G01X3244Y8317D01*
G01X3205Y8311D01*
G01X3204Y8317D01*
G01X3202Y8324D01*
G01X3200Y8330D01*
G01X3196Y8336D01*
G01X3193Y8342D01*
G01X3188Y8347D01*
G01X3183Y8352D01*
G01X3178Y8355D01*
G01X3171Y8359D01*
G01X3163Y8361D01*
G01X3155Y8363D01*
G01X3146Y8363D01*
G01X3138Y8363D01*
G01X3130Y8361D01*
G01X3123Y8359D01*
G01X3117Y8355D01*
G01X3111Y8352D01*
G01X3105Y8347D01*
G01X3101Y8342D01*
G01X3096Y8336D01*
G01X3092Y8328D01*
G01X3090Y8319D01*
G01X3088Y8309D01*
G01X3088Y8298D01*
G01X3088Y8126D01*
G01X3088Y8115D01*
G01X3090Y8104D01*
G01X3092Y8095D01*
G01X3096Y8086D01*
G01X3101Y8081D01*
G01X3105Y8076D01*
G01X3111Y8071D01*
G01X3117Y8067D01*
G01X3123Y8064D01*
G01X3130Y8061D01*
G01X3138Y8060D01*
G01X3146Y8059D01*
G01X3155Y8060D01*
G01X3163Y8061D01*
G01X3171Y8064D01*
G01X3178Y8067D01*
G01X3183Y8071D01*
G01X3188Y8076D01*
G01X3193Y8081D01*
G01X3196Y8088D01*
G01X3200Y8093D01*
G01X3202Y8099D01*
G01X3204Y8106D01*
G01X3205Y8113D01*
G01X3244Y8105D01*
G01X3242Y8096D01*
G01X3240Y8086D01*
G01X3236Y8077D01*
G01X3232Y8069D01*
G01X3226Y8059D01*
G01X3218Y8051D01*
G01X3210Y8043D01*
G01X3201Y8036D01*
G01X3188Y8031D01*
G01X3176Y8027D01*
G01X3161Y8024D01*
G37*

%LPC*%

%LPD*%
G36*
G01X2911Y8024D02*
G01X2896Y8023D01*
G01X2880Y8024D01*
G01X2865Y8027D01*
G01X2851Y8031D01*
G01X2838Y8038D01*
G01X2830Y8043D01*
G01X2822Y8050D01*
G01X2815Y8057D01*
G01X2809Y8065D01*
G01X2805Y8075D01*
G01X2802Y8085D01*
G01X2800Y8095D01*
G01X2800Y8105D01*
G01X2838Y8111D01*
G01X2838Y8107D01*
G01X2839Y8101D01*
G01X2840Y8096D01*
G01X2842Y8090D01*
G01X2844Y8084D01*
G01X2848Y8080D01*
G01X2852Y8075D01*
G01X2857Y8071D01*
G01X2863Y8067D01*
G01X2869Y8064D01*
G01X2877Y8061D01*
G01X2886Y8060D01*
G01X2896Y8059D01*
G01X2904Y8060D01*
G01X2912Y8061D01*
G01X2919Y8064D01*
G01X2926Y8067D01*
G01X2931Y8071D01*
G01X2936Y8075D01*
G01X2941Y8080D01*
G01X2944Y8086D01*
G01X2948Y8093D01*
G01X2950Y8100D01*
G01X2951Y8108D01*
G01X2951Y8115D01*
G01X2951Y8123D01*
G01X2949Y8132D01*
G01X2946Y8140D01*
G01X2942Y8148D01*
G01X2935Y8159D01*
G01X2923Y8170D01*
G01X2908Y8181D01*
G01X2890Y8192D01*
G01X2864Y8208D01*
G01X2843Y8224D01*
G01X2828Y8239D01*
G01X2817Y8255D01*
G01X2810Y8267D01*
G01X2805Y8280D01*
G01X2803Y8294D01*
G01X2801Y8307D01*
G01X2802Y8320D01*
G01X2805Y8332D01*
G01X2809Y8344D01*
G01X2815Y8355D01*
G01X2821Y8365D01*
G01X2828Y8373D01*
G01X2836Y8380D01*
G01X2846Y8386D01*
G01X2857Y8392D01*
G01X2870Y8396D01*
G01X2884Y8399D01*
G01X2898Y8400D01*
G01X2914Y8399D01*
G01X2929Y8396D01*
G01X2942Y8392D01*
G01X2955Y8386D01*
G01X2963Y8380D01*
G01X2971Y8373D01*
G01X2978Y8365D01*
G01X2984Y8357D01*
G01X2988Y8347D01*
G01X2992Y8338D01*
G01X2994Y8328D01*
G01X2994Y8317D01*
G01X2955Y8313D01*
G01X2955Y8315D01*
G01X2954Y8321D01*
G01X2953Y8327D01*
G01X2951Y8333D01*
G01X2948Y8338D01*
G01X2945Y8343D01*
G01X2941Y8348D01*
G01X2937Y8352D01*
G01X2932Y8355D01*
G01X2924Y8359D01*
G01X2916Y8361D01*
G01X2908Y8363D01*
G01X2898Y8363D01*
G01X2890Y8363D01*
G01X2882Y8361D01*
G01X2874Y8359D01*
G01X2867Y8355D01*
G01X2862Y8352D01*
G01X2857Y8348D01*
G01X2853Y8343D01*
G01X2850Y8338D01*
G01X2846Y8330D01*
G01X2844Y8323D01*
G01X2842Y8315D01*
G01X2842Y8307D01*
G01X2842Y8300D01*
G01X2844Y8292D01*
G01X2846Y8284D01*
G01X2851Y8276D01*
G01X2859Y8265D01*
G01X2871Y8253D01*
G01X2886Y8242D01*
G01X2905Y8230D01*
G01X2930Y8215D01*
G01X2950Y8199D01*
G01X2966Y8184D01*
G01X2978Y8169D01*
G01X2984Y8156D01*
G01X2988Y8143D01*
G01X2991Y8129D01*
G01X2992Y8115D01*
G01X2991Y8103D01*
G01X2988Y8090D01*
G01X2985Y8079D01*
G01X2980Y8067D01*
G01X2973Y8058D01*
G01X2966Y8050D01*
G01X2957Y8042D01*
G01X2948Y8036D01*
G01X2937Y8031D01*
G01X2924Y8027D01*
G01X2911Y8024D01*
G37*

%LPC*%

%LPD*%
G36*
G01X1911Y8024D02*
G01X1896Y8023D01*
G01X1880Y8024D01*
G01X1865Y8027D01*
G01X1851Y8031D01*
G01X1838Y8038D01*
G01X1830Y8043D01*
G01X1822Y8050D01*
G01X1815Y8057D01*
G01X1809Y8065D01*
G01X1805Y8075D01*
G01X1802Y8085D01*
G01X1800Y8095D01*
G01X1800Y8105D01*
G01X1838Y8111D01*
G01X1838Y8107D01*
G01X1839Y8101D01*
G01X1840Y8096D01*
G01X1842Y8090D01*
G01X1844Y8084D01*
G01X1848Y8080D01*
G01X1852Y8075D01*
G01X1857Y8071D01*
G01X1863Y8067D01*
G01X1869Y8064D01*
G01X1877Y8061D01*
G01X1886Y8060D01*
G01X1896Y8059D01*
G01X1904Y8060D01*
G01X1912Y8061D01*
G01X1919Y8064D01*
G01X1926Y8067D01*
G01X1931Y8071D01*
G01X1936Y8075D01*
G01X1941Y8080D01*
G01X1944Y8086D01*
G01X1948Y8093D01*
G01X1950Y8100D01*
G01X1951Y8108D01*
G01X1951Y8115D01*
G01X1951Y8123D01*
G01X1949Y8132D01*
G01X1946Y8140D01*
G01X1942Y8148D01*
G01X1935Y8159D01*
G01X1923Y8170D01*
G01X1908Y8181D01*
G01X1890Y8192D01*
G01X1864Y8208D01*
G01X1843Y8224D01*
G01X1828Y8239D01*
G01X1817Y8255D01*
G01X1810Y8267D01*
G01X1805Y8280D01*
G01X1803Y8294D01*
G01X1801Y8307D01*
G01X1802Y8320D01*
G01X1805Y8332D01*
G01X1809Y8344D01*
G01X1815Y8355D01*
G01X1821Y8365D01*
G01X1828Y8373D01*
G01X1836Y8380D01*
G01X1846Y8386D01*
G01X1857Y8392D01*
G01X1870Y8396D01*
G01X1884Y8399D01*
G01X1898Y8400D01*
G01X1914Y8399D01*
G01X1929Y8396D01*
G01X1942Y8392D01*
G01X1955Y8386D01*
G01X1963Y8380D01*
G01X1971Y8373D01*
G01X1978Y8365D01*
G01X1984Y8357D01*
G01X1988Y8347D01*
G01X1992Y8338D01*
G01X1994Y8328D01*
G01X1994Y8317D01*
G01X1955Y8313D01*
G01X1955Y8315D01*
G01X1954Y8321D01*
G01X1953Y8327D01*
G01X1951Y8333D01*
G01X1948Y8338D01*
G01X1945Y8343D01*
G01X1941Y8348D01*
G01X1937Y8352D01*
G01X1932Y8355D01*
G01X1924Y8359D01*
G01X1916Y8361D01*
G01X1908Y8363D01*
G01X1898Y8363D01*
G01X1890Y8363D01*
G01X1882Y8361D01*
G01X1874Y8359D01*
G01X1867Y8355D01*
G01X1862Y8352D01*
G01X1857Y8348D01*
G01X1853Y8343D01*
G01X1850Y8338D01*
G01X1846Y8330D01*
G01X1844Y8323D01*
G01X1842Y8315D01*
G01X1842Y8307D01*
G01X1842Y8300D01*
G01X1844Y8292D01*
G01X1846Y8284D01*
G01X1851Y8276D01*
G01X1859Y8265D01*
G01X1871Y8253D01*
G01X1886Y8242D01*
G01X1905Y8230D01*
G01X1930Y8215D01*
G01X1950Y8199D01*
G01X1966Y8184D01*
G01X1978Y8169D01*
G01X1984Y8156D01*
G01X1988Y8143D01*
G01X1991Y8129D01*
G01X1992Y8115D01*
G01X1991Y8103D01*
G01X1988Y8090D01*
G01X1985Y8079D01*
G01X1980Y8067D01*
G01X1973Y8058D01*
G01X1966Y8050D01*
G01X1957Y8042D01*
G01X1948Y8036D01*
G01X1937Y8031D01*
G01X1924Y8027D01*
G01X1911Y8024D01*
G37*

%LPC*%

%LPD*%
G36*
G01X5417Y8028D02*
G01X5376Y8028D01*
G01X5353Y8101D01*
G01X5335Y8167D01*
G01X5320Y8226D01*
G01X5310Y8277D01*
G01X5303Y8321D01*
G01X5301Y8359D01*
G01X5301Y8396D01*
G01X5342Y8396D01*
G01X5342Y8359D01*
G01X5343Y8326D01*
G01X5348Y8287D01*
G01X5355Y8243D01*
G01X5366Y8192D01*
G01X5380Y8136D01*
G01X5396Y8073D01*
G01X5413Y8136D01*
G01X5427Y8192D01*
G01X5438Y8243D01*
G01X5445Y8287D01*
G01X5450Y8326D01*
G01X5451Y8359D01*
G01X5451Y8396D01*
G01X5492Y8396D01*
G01X5492Y8359D01*
G01X5490Y8321D01*
G01X5483Y8277D01*
G01X5473Y8226D01*
G01X5458Y8167D01*
G01X5440Y8101D01*
G01X5417Y8028D01*
G37*

%LPC*%

%LPD*%
G36*
G01X4384Y8028D02*
G01X4301Y8028D01*
G01X4301Y8396D01*
G01X4384Y8396D01*
G01X4400Y8395D01*
G01X4414Y8392D01*
G01X4428Y8388D01*
G01X4440Y8382D01*
G01X4451Y8374D01*
G01X4461Y8365D01*
G01X4469Y8355D01*
G01X4478Y8344D01*
G01X4485Y8326D01*
G01X4491Y8307D01*
G01X4494Y8286D01*
G01X4496Y8263D01*
G01X4496Y8159D01*
G01X4494Y8137D01*
G01X4491Y8116D01*
G01X4485Y8097D01*
G01X4478Y8080D01*
G01X4469Y8068D01*
G01X4461Y8057D01*
G01X4451Y8049D01*
G01X4440Y8042D01*
G01X4428Y8035D01*
G01X4414Y8031D01*
G01X4400Y8028D01*
G01X4384Y8028D01*
G37*

%LPC*%
G36*
G01X4342Y8359D02*
G01X4342Y8063D01*
G01X4384Y8063D01*
G01X4393Y8064D01*
G01X4402Y8066D01*
G01X4410Y8069D01*
G01X4417Y8073D01*
G01X4424Y8077D01*
G01X4430Y8083D01*
G01X4436Y8090D01*
G01X4442Y8098D01*
G01X4448Y8110D01*
G01X4452Y8125D01*
G01X4455Y8141D01*
G01X4455Y8159D01*
G01X4455Y8263D01*
G01X4455Y8282D01*
G01X4452Y8298D01*
G01X4448Y8313D01*
G01X4442Y8326D01*
G01X4436Y8334D01*
G01X4430Y8340D01*
G01X4424Y8346D01*
G01X4417Y8351D01*
G01X4410Y8355D01*
G01X4402Y8357D01*
G01X4393Y8359D01*
G01X4384Y8359D01*
G01X4342Y8359D01*
G37*

%LPD*%
G36*
G01X4092Y8028D02*
G01X4051Y8028D01*
G01X4051Y8396D01*
G01X4107Y8396D01*
G01X4203Y8094D01*
G01X4203Y8098D01*
G01X4203Y8102D01*
G01X4203Y8105D01*
G01X4203Y8109D01*
G01X4203Y8161D01*
G01X4202Y8186D01*
G01X4202Y8208D01*
G01X4201Y8228D01*
G01X4201Y8396D01*
G01X4242Y8396D01*
G01X4242Y8028D01*
G01X4186Y8028D01*
G01X4090Y8328D01*
G01X4090Y8265D01*
G01X4091Y8258D01*
G01X4092Y8255D01*
G01X4092Y8028D01*
G37*

%LPC*%

%LPD*%
G36*
G01X3496Y8028D02*
G01X3317Y8028D01*
G01X3317Y8396D01*
G01X3357Y8396D01*
G01X3357Y8063D01*
G01X3496Y8063D01*
G01X3496Y8028D01*
G37*

%LPC*%

%LPD*%
G36*
G01X2342Y8028D02*
G01X2301Y8028D01*
G01X2301Y8065D01*
G01X2303Y8101D01*
G01X2310Y8146D01*
G01X2320Y8197D01*
G01X2335Y8256D01*
G01X2353Y8322D01*
G01X2376Y8396D01*
G01X2417Y8396D01*
G01X2440Y8322D01*
G01X2458Y8256D01*
G01X2473Y8197D01*
G01X2483Y8146D01*
G01X2490Y8101D01*
G01X2492Y8065D01*
G01X2492Y8028D01*
G01X2451Y8028D01*
G01X2451Y8065D01*
G01X2451Y8078D01*
G01X2451Y8092D01*
G01X2449Y8108D01*
G01X2448Y8125D01*
G01X2346Y8125D01*
G01X2344Y8108D01*
G01X2343Y8092D01*
G01X2342Y8078D01*
G01X2342Y8065D01*
G01X2342Y8028D01*
G37*

%LPC*%
G36*
G01X2359Y8201D02*
G01X2351Y8161D01*
G01X2442Y8161D01*
G01X2434Y8201D01*
G01X2424Y8246D01*
G01X2411Y8296D01*
G01X2396Y8350D01*
G01X2382Y8296D01*
G01X2370Y8246D01*
G01X2359Y8201D01*
G37*

%LPD*%
G36*
G01X2134Y8028D02*
G01X2051Y8028D01*
G01X2051Y8396D01*
G01X2134Y8396D01*
G01X2150Y8395D01*
G01X2164Y8392D01*
G01X2178Y8388D01*
G01X2190Y8382D01*
G01X2201Y8374D01*
G01X2211Y8365D01*
G01X2219Y8355D01*
G01X2228Y8344D01*
G01X2235Y8326D01*
G01X2241Y8307D01*
G01X2244Y8286D01*
G01X2246Y8263D01*
G01X2246Y8159D01*
G01X2244Y8137D01*
G01X2241Y8116D01*
G01X2235Y8097D01*
G01X2228Y8080D01*
G01X2219Y8068D01*
G01X2211Y8057D01*
G01X2201Y8049D01*
G01X2190Y8042D01*
G01X2178Y8035D01*
G01X2164Y8031D01*
G01X2150Y8028D01*
G01X2134Y8028D01*
G37*

%LPC*%
G36*
G01X2092Y8359D02*
G01X2092Y8063D01*
G01X2134Y8063D01*
G01X2143Y8064D01*
G01X2152Y8066D01*
G01X2160Y8069D01*
G01X2167Y8073D01*
G01X2174Y8077D01*
G01X2180Y8083D01*
G01X2186Y8090D01*
G01X2192Y8098D01*
G01X2198Y8110D01*
G01X2202Y8125D01*
G01X2205Y8141D01*
G01X2205Y8159D01*
G01X2205Y8263D01*
G01X2205Y8282D01*
G01X2202Y8298D01*
G01X2198Y8313D01*
G01X2192Y8326D01*
G01X2186Y8334D01*
G01X2180Y8340D01*
G01X2174Y8346D01*
G01X2167Y8351D01*
G01X2160Y8355D01*
G01X2152Y8357D01*
G01X2143Y8359D01*
G01X2134Y8359D01*
G01X2092Y8359D01*
G37*

%LPD*%
G36*
G01X4917Y8105D02*
G01X4876Y8105D01*
G01X4876Y8192D01*
G01X4801Y8192D01*
G01X4801Y8228D01*
G01X4876Y8228D01*
G01X4876Y8315D01*
G01X4917Y8315D01*
G01X4917Y8228D01*
G01X4992Y8228D01*
G01X4992Y8192D01*
G01X4917Y8192D01*
G01X4917Y8105D01*
G37*

%LPC*%

%LPD*%

%LPD*%
G36*
G01X2908Y11624D02*
G01X2894Y11623D01*
G01X2879Y11624D01*
G01X2865Y11627D01*
G01X2853Y11631D01*
G01X2840Y11636D01*
G01X2831Y11643D01*
G01X2823Y11651D01*
G01X2815Y11659D01*
G01X2809Y11669D01*
G01X2803Y11681D01*
G01X2799Y11695D01*
G01X2796Y11709D01*
G01X2796Y11726D01*
G01X2796Y11898D01*
G01X2796Y11913D01*
G01X2799Y11928D01*
G01X2803Y11942D01*
G01X2809Y11955D01*
G01X2815Y11964D01*
G01X2823Y11973D01*
G01X2831Y11980D01*
G01X2840Y11986D01*
G01X2852Y11992D01*
G01X2865Y11996D01*
G01X2879Y11999D01*
G01X2894Y12000D01*
G01X2909Y11999D01*
G01X2923Y11996D01*
G01X2936Y11992D01*
G01X2948Y11986D01*
G01X2957Y11980D01*
G01X2965Y11973D01*
G01X2973Y11964D01*
G01X2980Y11955D01*
G01X2984Y11946D01*
G01X2988Y11937D01*
G01X2990Y11927D01*
G01X2992Y11917D01*
G01X2953Y11911D01*
G01X2951Y11917D01*
G01X2950Y11924D01*
G01X2947Y11930D01*
G01X2944Y11936D01*
G01X2940Y11942D01*
G01X2936Y11947D01*
G01X2930Y11952D01*
G01X2925Y11955D01*
G01X2918Y11959D01*
G01X2911Y11961D01*
G01X2903Y11963D01*
G01X2894Y11963D01*
G01X2886Y11963D01*
G01X2878Y11961D01*
G01X2870Y11959D01*
G01X2863Y11955D01*
G01X2858Y11952D01*
G01X2853Y11947D01*
G01X2848Y11942D01*
G01X2844Y11936D01*
G01X2840Y11928D01*
G01X2838Y11919D01*
G01X2836Y11909D01*
G01X2836Y11898D01*
G01X2836Y11726D01*
G01X2836Y11715D01*
G01X2838Y11704D01*
G01X2840Y11695D01*
G01X2844Y11686D01*
G01X2848Y11681D01*
G01X2853Y11676D01*
G01X2858Y11671D01*
G01X2863Y11667D01*
G01X2870Y11664D01*
G01X2878Y11661D01*
G01X2885Y11660D01*
G01X2894Y11659D01*
G01X2901Y11660D01*
G01X2909Y11661D01*
G01X2915Y11663D01*
G01X2921Y11667D01*
G01X2927Y11670D01*
G01X2932Y11675D01*
G01X2936Y11680D01*
G01X2940Y11686D01*
G01X2944Y11694D01*
G01X2947Y11703D01*
G01X2949Y11714D01*
G01X2950Y11726D01*
G01X2950Y11792D01*
G01X2894Y11792D01*
G01X2894Y11828D01*
G01X2990Y11828D01*
G01X2990Y11726D01*
G01X2989Y11709D01*
G01X2986Y11694D01*
G01X2982Y11680D01*
G01X2976Y11667D01*
G01X2969Y11658D01*
G01X2962Y11650D01*
G01X2953Y11642D01*
G01X2944Y11636D01*
G01X2934Y11630D01*
G01X2921Y11626D01*
G01X2908Y11624D01*
G37*

%LPC*%

%LPD*%
G36*
G01X2156Y11624D02*
G01X2142Y11623D01*
G01X2129Y11624D01*
G01X2117Y11626D01*
G01X2105Y11630D01*
G01X2094Y11636D01*
G01X2084Y11642D01*
G01X2076Y11650D01*
G01X2067Y11660D01*
G01X2061Y11671D01*
G01X2056Y11679D01*
G01X2052Y11687D01*
G01X2049Y11696D01*
G01X2046Y11705D01*
G01X2084Y11719D01*
G01X2086Y11710D01*
G01X2088Y11703D01*
G01X2091Y11695D01*
G01X2094Y11688D01*
G01X2099Y11682D01*
G01X2105Y11676D01*
G01X2110Y11671D01*
G01X2117Y11667D01*
G01X2122Y11663D01*
G01X2128Y11661D01*
G01X2135Y11660D01*
G01X2142Y11659D01*
G01X2150Y11660D01*
G01X2157Y11661D01*
G01X2163Y11663D01*
G01X2169Y11667D01*
G01X2176Y11671D01*
G01X2181Y11676D01*
G01X2186Y11682D01*
G01X2190Y11688D01*
G01X2196Y11700D01*
G01X2200Y11714D01*
G01X2203Y11729D01*
G01X2203Y11746D01*
G01X2203Y11762D01*
G01X2200Y11778D01*
G01X2196Y11791D01*
G01X2190Y11803D01*
G01X2186Y11810D01*
G01X2181Y11816D01*
G01X2176Y11821D01*
G01X2169Y11825D01*
G01X2164Y11827D01*
G01X2158Y11829D01*
G01X2152Y11830D01*
G01X2144Y11830D01*
G01X2138Y11830D01*
G01X2131Y11829D01*
G01X2125Y11827D01*
G01X2119Y11825D01*
G01X2113Y11821D01*
G01X2108Y11815D01*
G01X2103Y11809D01*
G01X2098Y11803D01*
G01X2096Y11798D01*
G01X2093Y11793D01*
G01X2091Y11787D01*
G01X2090Y11782D01*
G01X2055Y11798D01*
G01X2055Y11996D01*
G01X2230Y11996D01*
G01X2230Y11959D01*
G01X2094Y11959D01*
G01X2094Y11853D01*
G01X2094Y11853D01*
G01X2096Y11854D01*
G01X2098Y11855D01*
G01X2108Y11860D01*
G01X2119Y11864D01*
G01X2132Y11866D01*
G01X2144Y11867D01*
G01X2158Y11866D01*
G01X2170Y11863D01*
G01X2182Y11860D01*
G01X2192Y11855D01*
G01X2202Y11848D01*
G01X2211Y11840D01*
G01X2219Y11831D01*
G01X2226Y11821D01*
G01X2233Y11805D01*
G01X2239Y11787D01*
G01X2242Y11767D01*
G01X2244Y11746D01*
G01X2242Y11724D01*
G01X2239Y11704D01*
G01X2233Y11686D01*
G01X2226Y11671D01*
G01X2219Y11660D01*
G01X2211Y11650D01*
G01X2201Y11642D01*
G01X2192Y11636D01*
G01X2180Y11630D01*
G01X2169Y11626D01*
G01X2156Y11624D01*
G37*

%LPC*%

%LPD*%
G36*
G01X4840Y11628D02*
G01X4800Y11628D01*
G01X4800Y11996D01*
G01X4840Y11996D01*
G01X4840Y11838D01*
G01X4950Y11838D01*
G01X4950Y11996D01*
G01X4990Y11996D01*
G01X4990Y11628D01*
G01X4950Y11628D01*
G01X4950Y11803D01*
G01X4840Y11803D01*
G01X4840Y11628D01*
G37*

%LPC*%

%LPD*%
G36*
G01X4665Y11628D02*
G01X4625Y11628D01*
G01X4625Y11959D01*
G01X4550Y11959D01*
G01X4550Y11996D01*
G01X4740Y11996D01*
G01X4740Y11959D01*
G01X4665Y11959D01*
G01X4665Y11628D01*
G37*

%LPC*%

%LPD*%
G36*
G01X4340Y11628D02*
G01X4300Y11628D01*
G01X4300Y11996D01*
G01X4394Y11996D01*
G01X4409Y11995D01*
G01X4423Y11992D01*
G01X4436Y11988D01*
G01X4448Y11982D01*
G01X4457Y11976D01*
G01X4465Y11969D01*
G01X4473Y11960D01*
G01X4480Y11951D01*
G01X4486Y11937D01*
G01X4490Y11923D01*
G01X4493Y11907D01*
G01X4494Y11890D01*
G01X4493Y11874D01*
G01X4490Y11858D01*
G01X4486Y11844D01*
G01X4480Y11830D01*
G01X4473Y11821D01*
G01X4465Y11812D01*
G01X4457Y11805D01*
G01X4448Y11798D01*
G01X4443Y11796D01*
G01X4438Y11793D01*
G01X4433Y11791D01*
G01X4428Y11790D01*
G01X4434Y11780D01*
G01X4441Y11770D01*
G01X4447Y11761D01*
G01X4453Y11751D01*
G01X4483Y11684D01*
G01X4494Y11628D01*
G01X4453Y11628D01*
G01X4445Y11676D01*
G01X4419Y11732D01*
G01X4411Y11746D01*
G01X4402Y11759D01*
G01X4393Y11772D01*
G01X4384Y11786D01*
G01X4340Y11786D01*
G01X4340Y11628D01*
G37*

%LPC*%
G36*
G01X4340Y11959D02*
G01X4340Y11821D01*
G01X4394Y11821D01*
G01X4403Y11822D01*
G01X4410Y11823D01*
G01X4417Y11826D01*
G01X4423Y11828D01*
G01X4429Y11832D01*
G01X4434Y11837D01*
G01X4439Y11842D01*
G01X4444Y11848D01*
G01X4448Y11857D01*
G01X4451Y11867D01*
G01X4453Y11878D01*
G01X4453Y11890D01*
G01X4453Y11902D01*
G01X4451Y11913D01*
G01X4448Y11923D01*
G01X4444Y11932D01*
G01X4439Y11938D01*
G01X4434Y11944D01*
G01X4429Y11948D01*
G01X4423Y11953D01*
G01X4417Y11955D01*
G01X4410Y11958D01*
G01X4403Y11959D01*
G01X4394Y11959D01*
G01X4340Y11959D01*
G37*

%LPD*%
G36*
G01X4090Y11628D02*
G01X4050Y11628D01*
G01X4050Y11665D01*
G01X4051Y11701D01*
G01X4058Y11746D01*
G01X4068Y11797D01*
G01X4083Y11856D01*
G01X4101Y11922D01*
G01X4125Y11996D01*
G01X4165Y11996D01*
G01X4188Y11922D01*
G01X4206Y11856D01*
G01X4221Y11797D01*
G01X4231Y11746D01*
G01X4238Y11701D01*
G01X4240Y11665D01*
G01X4240Y11628D01*
G01X4200Y11628D01*
G01X4200Y11665D01*
G01X4199Y11678D01*
G01X4198Y11692D01*
G01X4197Y11708D01*
G01X4194Y11725D01*
G01X4094Y11725D01*
G01X4092Y11708D01*
G01X4090Y11692D01*
G01X4090Y11678D01*
G01X4090Y11665D01*
G01X4090Y11628D01*
G37*

%LPC*%
G36*
G01X4107Y11801D02*
G01X4100Y11761D01*
G01X4190Y11761D01*
G01X4182Y11801D01*
G01X4171Y11846D01*
G01X4159Y11896D01*
G01X4144Y11950D01*
G01X4130Y11896D01*
G01X4117Y11846D01*
G01X4107Y11801D01*
G37*

%LPD*%
G36*
G01X3990Y11628D02*
G01X3815Y11628D01*
G01X3815Y11996D01*
G01X3990Y11996D01*
G01X3990Y11959D01*
G01X3855Y11959D01*
G01X3855Y11844D01*
G01X3961Y11844D01*
G01X3961Y11809D01*
G01X3855Y11809D01*
G01X3855Y11663D01*
G01X3990Y11663D01*
G01X3990Y11628D01*
G37*

%LPC*%

%LPD*%
G36*
G01X3382Y11628D02*
G01X3300Y11628D01*
G01X3300Y11996D01*
G01X3382Y11996D01*
G01X3397Y11995D01*
G01X3411Y11992D01*
G01X3425Y11988D01*
G01X3438Y11982D01*
G01X3448Y11974D01*
G01X3458Y11965D01*
G01X3467Y11955D01*
G01X3475Y11944D01*
G01X3483Y11926D01*
G01X3489Y11907D01*
G01X3492Y11886D01*
G01X3494Y11863D01*
G01X3494Y11759D01*
G01X3492Y11737D01*
G01X3489Y11716D01*
G01X3483Y11697D01*
G01X3475Y11680D01*
G01X3467Y11668D01*
G01X3458Y11657D01*
G01X3448Y11649D01*
G01X3438Y11642D01*
G01X3425Y11635D01*
G01X3411Y11631D01*
G01X3397Y11628D01*
G01X3382Y11628D01*
G37*

%LPC*%
G36*
G01X3340Y11959D02*
G01X3340Y11663D01*
G01X3382Y11663D01*
G01X3391Y11664D01*
G01X3399Y11666D01*
G01X3407Y11669D01*
G01X3415Y11673D01*
G01X3422Y11677D01*
G01X3428Y11683D01*
G01X3434Y11690D01*
G01X3440Y11698D01*
G01X3446Y11710D01*
G01X3450Y11725D01*
G01X3453Y11741D01*
G01X3453Y11759D01*
G01X3453Y11863D01*
G01X3453Y11882D01*
G01X3450Y11898D01*
G01X3446Y11913D01*
G01X3440Y11926D01*
G01X3434Y11934D01*
G01X3428Y11940D01*
G01X3422Y11946D01*
G01X3415Y11951D01*
G01X3407Y11955D01*
G01X3399Y11957D01*
G01X3391Y11959D01*
G01X3382Y11959D01*
G01X3340Y11959D01*
G37*

%LPD*%
G36*
G01X3090Y11628D02*
G01X3050Y11628D01*
G01X3050Y11996D01*
G01X3105Y11996D01*
G01X3201Y11694D01*
G01X3201Y11742D01*
G01X3200Y11748D01*
G01X3200Y11753D01*
G01X3200Y11757D01*
G01X3200Y11996D01*
G01X3240Y11996D01*
G01X3240Y11628D01*
G01X3184Y11628D01*
G01X3088Y11928D01*
G01X3088Y11917D01*
G01X3088Y11905D01*
G01X3088Y11892D01*
G01X3088Y11878D01*
G01X3088Y11833D01*
G01X3089Y11828D01*
G01X3089Y11822D01*
G01X3090Y11817D01*
G01X3090Y11628D01*
G37*

%LPC*%

%LPD*%
G36*
G01X2415Y11628D02*
G01X2375Y11628D01*
G01X2351Y11701D01*
G01X2333Y11767D01*
G01X2318Y11826D01*
G01X2308Y11877D01*
G01X2301Y11921D01*
G01X2300Y11959D01*
G01X2300Y11996D01*
G01X2340Y11996D01*
G01X2340Y11959D01*
G01X2341Y11926D01*
G01X2346Y11887D01*
G01X2353Y11843D01*
G01X2364Y11792D01*
G01X2378Y11736D01*
G01X2394Y11673D01*
G01X2411Y11736D01*
G01X2425Y11792D01*
G01X2436Y11843D01*
G01X2443Y11887D01*
G01X2448Y11926D01*
G01X2450Y11959D01*
G01X2450Y11996D01*
G01X2490Y11996D01*
G01X2490Y11959D01*
G01X2488Y11921D01*
G01X2481Y11877D01*
G01X2471Y11826D01*
G01X2456Y11767D01*
G01X2438Y11701D01*
G01X2415Y11628D01*
G37*

%LPC*%

%LPD*%
G36*
G01X1915Y11705D02*
G01X1875Y11705D01*
G01X1875Y11792D01*
G01X1800Y11792D01*
G01X1800Y11828D01*
G01X1875Y11828D01*
G01X1875Y11915D01*
G01X1915Y11915D01*
G01X1915Y11828D01*
G01X1990Y11828D01*
G01X1990Y11792D01*
G01X1915Y11792D01*
G01X1915Y11705D01*
G37*

%LPC*%

%LPD*%

%LPD*%
G36*
G01X6958Y15124D02*
G01X6944Y15123D01*
G01X6929Y15124D01*
G01X6915Y15127D01*
G01X6903Y15131D01*
G01X6890Y15136D01*
G01X6881Y15143D01*
G01X6873Y15151D01*
G01X6865Y15159D01*
G01X6859Y15169D01*
G01X6853Y15181D01*
G01X6849Y15195D01*
G01X6846Y15209D01*
G01X6846Y15226D01*
G01X6846Y15398D01*
G01X6846Y15413D01*
G01X6849Y15428D01*
G01X6853Y15442D01*
G01X6859Y15455D01*
G01X6865Y15464D01*
G01X6873Y15473D01*
G01X6881Y15480D01*
G01X6890Y15486D01*
G01X6902Y15492D01*
G01X6915Y15496D01*
G01X6929Y15499D01*
G01X6944Y15500D01*
G01X6959Y15499D01*
G01X6973Y15496D01*
G01X6986Y15492D01*
G01X6998Y15486D01*
G01X7007Y15480D01*
G01X7015Y15473D01*
G01X7023Y15464D01*
G01X7030Y15455D01*
G01X7034Y15446D01*
G01X7038Y15437D01*
G01X7040Y15427D01*
G01X7042Y15417D01*
G01X7003Y15411D01*
G01X7001Y15417D01*
G01X7000Y15424D01*
G01X6997Y15430D01*
G01X6994Y15436D01*
G01X6990Y15442D01*
G01X6986Y15447D01*
G01X6980Y15452D01*
G01X6975Y15455D01*
G01X6968Y15459D01*
G01X6961Y15461D01*
G01X6953Y15463D01*
G01X6944Y15463D01*
G01X6936Y15463D01*
G01X6928Y15461D01*
G01X6920Y15459D01*
G01X6913Y15455D01*
G01X6908Y15452D01*
G01X6903Y15447D01*
G01X6898Y15442D01*
G01X6894Y15436D01*
G01X6890Y15428D01*
G01X6888Y15419D01*
G01X6886Y15409D01*
G01X6886Y15398D01*
G01X6886Y15226D01*
G01X6886Y15215D01*
G01X6888Y15204D01*
G01X6890Y15195D01*
G01X6894Y15186D01*
G01X6898Y15181D01*
G01X6903Y15176D01*
G01X6908Y15171D01*
G01X6913Y15167D01*
G01X6920Y15164D01*
G01X6928Y15161D01*
G01X6935Y15160D01*
G01X6944Y15159D01*
G01X6951Y15160D01*
G01X6959Y15161D01*
G01X6965Y15163D01*
G01X6971Y15167D01*
G01X6977Y15170D01*
G01X6982Y15175D01*
G01X6986Y15180D01*
G01X6990Y15186D01*
G01X6994Y15194D01*
G01X6997Y15203D01*
G01X6999Y15214D01*
G01X7000Y15226D01*
G01X7000Y15292D01*
G01X6944Y15292D01*
G01X6944Y15328D01*
G01X7040Y15328D01*
G01X7040Y15226D01*
G01X7039Y15209D01*
G01X7036Y15194D01*
G01X7032Y15180D01*
G01X7026Y15167D01*
G01X7019Y15158D01*
G01X7012Y15150D01*
G01X7003Y15142D01*
G01X6994Y15136D01*
G01X6984Y15130D01*
G01X6971Y15126D01*
G01X6958Y15124D01*
G37*

%LPC*%

%LPD*%
G36*
G01X6206Y15124D02*
G01X6192Y15123D01*
G01X6179Y15124D01*
G01X6167Y15126D01*
G01X6155Y15130D01*
G01X6144Y15136D01*
G01X6134Y15142D01*
G01X6126Y15150D01*
G01X6117Y15160D01*
G01X6111Y15171D01*
G01X6106Y15179D01*
G01X6102Y15187D01*
G01X6099Y15196D01*
G01X6096Y15205D01*
G01X6134Y15219D01*
G01X6136Y15210D01*
G01X6138Y15203D01*
G01X6141Y15195D01*
G01X6144Y15188D01*
G01X6149Y15182D01*
G01X6155Y15176D01*
G01X6160Y15171D01*
G01X6167Y15167D01*
G01X6172Y15163D01*
G01X6178Y15161D01*
G01X6185Y15160D01*
G01X6192Y15159D01*
G01X6200Y15160D01*
G01X6207Y15161D01*
G01X6213Y15163D01*
G01X6219Y15167D01*
G01X6226Y15171D01*
G01X6231Y15176D01*
G01X6236Y15182D01*
G01X6240Y15188D01*
G01X6246Y15200D01*
G01X6250Y15214D01*
G01X6253Y15229D01*
G01X6253Y15246D01*
G01X6253Y15262D01*
G01X6250Y15278D01*
G01X6246Y15291D01*
G01X6240Y15303D01*
G01X6236Y15310D01*
G01X6231Y15316D01*
G01X6226Y15321D01*
G01X6219Y15325D01*
G01X6214Y15327D01*
G01X6208Y15329D01*
G01X6202Y15330D01*
G01X6194Y15330D01*
G01X6188Y15330D01*
G01X6181Y15329D01*
G01X6175Y15327D01*
G01X6169Y15325D01*
G01X6163Y15321D01*
G01X6158Y15315D01*
G01X6153Y15309D01*
G01X6148Y15303D01*
G01X6146Y15298D01*
G01X6143Y15293D01*
G01X6141Y15287D01*
G01X6140Y15282D01*
G01X6105Y15298D01*
G01X6105Y15496D01*
G01X6280Y15496D01*
G01X6280Y15459D01*
G01X6144Y15459D01*
G01X6144Y15353D01*
G01X6144Y15353D01*
G01X6146Y15354D01*
G01X6148Y15355D01*
G01X6158Y15360D01*
G01X6169Y15364D01*
G01X6182Y15366D01*
G01X6194Y15367D01*
G01X6208Y15366D01*
G01X6220Y15363D01*
G01X6232Y15360D01*
G01X6242Y15355D01*
G01X6252Y15348D01*
G01X6261Y15340D01*
G01X6269Y15331D01*
G01X6276Y15321D01*
G01X6283Y15305D01*
G01X6289Y15287D01*
G01X6292Y15267D01*
G01X6294Y15246D01*
G01X6292Y15224D01*
G01X6289Y15204D01*
G01X6283Y15186D01*
G01X6276Y15171D01*
G01X6269Y15160D01*
G01X6261Y15150D01*
G01X6251Y15142D01*
G01X6242Y15136D01*
G01X6230Y15130D01*
G01X6219Y15126D01*
G01X6206Y15124D01*
G37*

%LPC*%

%LPD*%
G36*
G01X5209Y15124D02*
G01X5194Y15123D01*
G01X5180Y15124D01*
G01X5165Y15127D01*
G01X5153Y15131D01*
G01X5140Y15136D01*
G01X5131Y15143D01*
G01X5123Y15151D01*
G01X5115Y15159D01*
G01X5109Y15169D01*
G01X5103Y15181D01*
G01X5099Y15195D01*
G01X5096Y15209D01*
G01X5096Y15226D01*
G01X5096Y15398D01*
G01X5096Y15413D01*
G01X5099Y15428D01*
G01X5103Y15442D01*
G01X5109Y15455D01*
G01X5115Y15464D01*
G01X5123Y15473D01*
G01X5131Y15480D01*
G01X5140Y15486D01*
G01X5153Y15492D01*
G01X5165Y15496D01*
G01X5180Y15499D01*
G01X5194Y15500D01*
G01X5209Y15499D01*
G01X5223Y15496D01*
G01X5236Y15492D01*
G01X5248Y15486D01*
G01X5257Y15480D01*
G01X5265Y15473D01*
G01X5273Y15464D01*
G01X5280Y15455D01*
G01X5286Y15442D01*
G01X5290Y15428D01*
G01X5293Y15413D01*
G01X5294Y15398D01*
G01X5294Y15226D01*
G01X5293Y15209D01*
G01X5290Y15195D01*
G01X5286Y15181D01*
G01X5280Y15169D01*
G01X5273Y15159D01*
G01X5265Y15151D01*
G01X5257Y15143D01*
G01X5248Y15136D01*
G01X5236Y15131D01*
G01X5223Y15127D01*
G01X5209Y15124D01*
G37*

%LPC*%
G36*
G01X5186Y15160D02*
G01X5194Y15159D01*
G01X5203Y15160D01*
G01X5211Y15161D01*
G01X5218Y15164D01*
G01X5225Y15167D01*
G01X5230Y15171D01*
G01X5236Y15176D01*
G01X5240Y15181D01*
G01X5244Y15186D01*
G01X5248Y15195D01*
G01X5251Y15204D01*
G01X5253Y15215D01*
G01X5253Y15226D01*
G01X5253Y15398D01*
G01X5253Y15409D01*
G01X5251Y15419D01*
G01X5248Y15428D01*
G01X5244Y15436D01*
G01X5240Y15442D01*
G01X5236Y15447D01*
G01X5230Y15452D01*
G01X5225Y15455D01*
G01X5218Y15459D01*
G01X5211Y15461D01*
G01X5203Y15463D01*
G01X5194Y15463D01*
G01X5186Y15463D01*
G01X5178Y15461D01*
G01X5170Y15459D01*
G01X5163Y15455D01*
G01X5158Y15452D01*
G01X5153Y15447D01*
G01X5148Y15442D01*
G01X5144Y15436D01*
G01X5140Y15428D01*
G01X5138Y15419D01*
G01X5136Y15409D01*
G01X5136Y15398D01*
G01X5136Y15226D01*
G01X5136Y15215D01*
G01X5138Y15204D01*
G01X5140Y15195D01*
G01X5144Y15186D01*
G01X5148Y15181D01*
G01X5153Y15176D01*
G01X5158Y15171D01*
G01X5163Y15167D01*
G01X5170Y15164D01*
G01X5178Y15161D01*
G01X5186Y15160D01*
G37*

%LPD*%
G36*
G01X2209Y15124D02*
G01X2194Y15123D01*
G01X2179Y15124D01*
G01X2165Y15127D01*
G01X2152Y15131D01*
G01X2140Y15136D01*
G01X2131Y15143D01*
G01X2123Y15151D01*
G01X2115Y15159D01*
G01X2109Y15169D01*
G01X2103Y15181D01*
G01X2099Y15195D01*
G01X2096Y15209D01*
G01X2096Y15226D01*
G01X2096Y15398D01*
G01X2096Y15413D01*
G01X2099Y15428D01*
G01X2103Y15442D01*
G01X2109Y15455D01*
G01X2115Y15464D01*
G01X2123Y15473D01*
G01X2131Y15480D01*
G01X2140Y15486D01*
G01X2152Y15492D01*
G01X2165Y15496D01*
G01X2179Y15499D01*
G01X2194Y15500D01*
G01X2209Y15499D01*
G01X2223Y15496D01*
G01X2236Y15492D01*
G01X2248Y15486D01*
G01X2257Y15480D01*
G01X2265Y15473D01*
G01X2273Y15464D01*
G01X2280Y15455D01*
G01X2284Y15446D01*
G01X2288Y15437D01*
G01X2290Y15427D01*
G01X2292Y15417D01*
G01X2253Y15411D01*
G01X2251Y15417D01*
G01X2250Y15424D01*
G01X2247Y15430D01*
G01X2244Y15436D01*
G01X2240Y15442D01*
G01X2236Y15447D01*
G01X2230Y15452D01*
G01X2225Y15455D01*
G01X2218Y15459D01*
G01X2211Y15461D01*
G01X2203Y15463D01*
G01X2194Y15463D01*
G01X2186Y15463D01*
G01X2178Y15461D01*
G01X2170Y15459D01*
G01X2163Y15455D01*
G01X2158Y15452D01*
G01X2153Y15447D01*
G01X2148Y15442D01*
G01X2144Y15436D01*
G01X2140Y15428D01*
G01X2138Y15419D01*
G01X2136Y15409D01*
G01X2136Y15398D01*
G01X2136Y15226D01*
G01X2136Y15215D01*
G01X2138Y15204D01*
G01X2140Y15195D01*
G01X2144Y15186D01*
G01X2148Y15181D01*
G01X2153Y15176D01*
G01X2158Y15171D01*
G01X2163Y15167D01*
G01X2170Y15164D01*
G01X2178Y15161D01*
G01X2186Y15160D01*
G01X2194Y15159D01*
G01X2203Y15160D01*
G01X2211Y15161D01*
G01X2218Y15164D01*
G01X2225Y15167D01*
G01X2230Y15171D01*
G01X2236Y15176D01*
G01X2240Y15181D01*
G01X2244Y15188D01*
G01X2247Y15193D01*
G01X2250Y15199D01*
G01X2251Y15206D01*
G01X2253Y15213D01*
G01X2292Y15205D01*
G01X2290Y15196D01*
G01X2288Y15186D01*
G01X2284Y15177D01*
G01X2280Y15169D01*
G01X2273Y15159D01*
G01X2265Y15151D01*
G01X2257Y15143D01*
G01X2248Y15136D01*
G01X2236Y15131D01*
G01X2223Y15127D01*
G01X2209Y15124D01*
G37*

%LPC*%

%LPD*%
G36*
G01X1959Y15124D02*
G01X1944Y15123D01*
G01X1930Y15124D01*
G01X1915Y15127D01*
G01X1903Y15131D01*
G01X1890Y15136D01*
G01X1881Y15143D01*
G01X1873Y15151D01*
G01X1865Y15159D01*
G01X1859Y15169D01*
G01X1853Y15181D01*
G01X1849Y15195D01*
G01X1846Y15209D01*
G01X1846Y15226D01*
G01X1846Y15398D01*
G01X1846Y15413D01*
G01X1849Y15428D01*
G01X1853Y15442D01*
G01X1859Y15455D01*
G01X1865Y15464D01*
G01X1873Y15473D01*
G01X1881Y15480D01*
G01X1890Y15486D01*
G01X1903Y15492D01*
G01X1915Y15496D01*
G01X1930Y15499D01*
G01X1944Y15500D01*
G01X1959Y15499D01*
G01X1973Y15496D01*
G01X1986Y15492D01*
G01X1998Y15486D01*
G01X2007Y15480D01*
G01X2015Y15473D01*
G01X2023Y15464D01*
G01X2030Y15455D01*
G01X2036Y15442D01*
G01X2040Y15428D01*
G01X2043Y15413D01*
G01X2044Y15398D01*
G01X2044Y15226D01*
G01X2043Y15209D01*
G01X2040Y15195D01*
G01X2036Y15181D01*
G01X2030Y15169D01*
G01X2023Y15159D01*
G01X2015Y15151D01*
G01X2007Y15143D01*
G01X1998Y15136D01*
G01X1986Y15131D01*
G01X1973Y15127D01*
G01X1959Y15124D01*
G37*

%LPC*%
G36*
G01X1936Y15160D02*
G01X1944Y15159D01*
G01X1953Y15160D01*
G01X1961Y15161D01*
G01X1968Y15164D01*
G01X1975Y15167D01*
G01X1980Y15171D01*
G01X1986Y15176D01*
G01X1990Y15181D01*
G01X1994Y15186D01*
G01X1998Y15195D01*
G01X2001Y15204D01*
G01X2003Y15215D01*
G01X2003Y15226D01*
G01X2003Y15398D01*
G01X2003Y15409D01*
G01X2001Y15419D01*
G01X1998Y15428D01*
G01X1994Y15436D01*
G01X1990Y15442D01*
G01X1986Y15447D01*
G01X1980Y15452D01*
G01X1975Y15455D01*
G01X1968Y15459D01*
G01X1961Y15461D01*
G01X1953Y15463D01*
G01X1944Y15463D01*
G01X1936Y15463D01*
G01X1928Y15461D01*
G01X1920Y15459D01*
G01X1913Y15455D01*
G01X1908Y15452D01*
G01X1903Y15447D01*
G01X1898Y15442D01*
G01X1894Y15436D01*
G01X1890Y15428D01*
G01X1888Y15419D01*
G01X1886Y15409D01*
G01X1886Y15398D01*
G01X1886Y15226D01*
G01X1886Y15215D01*
G01X1888Y15204D01*
G01X1890Y15195D01*
G01X1894Y15186D01*
G01X1898Y15181D01*
G01X1903Y15176D01*
G01X1908Y15171D01*
G01X1913Y15167D01*
G01X1920Y15164D01*
G01X1928Y15161D01*
G01X1936Y15160D01*
G37*

%LPD*%
G36*
G01X7432Y15128D02*
G01X7350Y15128D01*
G01X7350Y15496D01*
G01X7432Y15496D01*
G01X7447Y15495D01*
G01X7461Y15492D01*
G01X7475Y15488D01*
G01X7488Y15482D01*
G01X7498Y15474D01*
G01X7508Y15465D01*
G01X7517Y15455D01*
G01X7525Y15444D01*
G01X7533Y15426D01*
G01X7539Y15407D01*
G01X7542Y15386D01*
G01X7544Y15363D01*
G01X7544Y15259D01*
G01X7542Y15237D01*
G01X7539Y15216D01*
G01X7533Y15197D01*
G01X7525Y15180D01*
G01X7517Y15168D01*
G01X7508Y15157D01*
G01X7498Y15149D01*
G01X7488Y15142D01*
G01X7475Y15135D01*
G01X7461Y15131D01*
G01X7447Y15128D01*
G01X7432Y15128D01*
G37*

%LPC*%
G36*
G01X7390Y15459D02*
G01X7390Y15163D01*
G01X7432Y15163D01*
G01X7441Y15164D01*
G01X7449Y15166D01*
G01X7457Y15169D01*
G01X7465Y15173D01*
G01X7472Y15177D01*
G01X7478Y15183D01*
G01X7484Y15190D01*
G01X7490Y15198D01*
G01X7496Y15210D01*
G01X7500Y15225D01*
G01X7503Y15241D01*
G01X7503Y15259D01*
G01X7503Y15363D01*
G01X7503Y15382D01*
G01X7500Y15398D01*
G01X7496Y15413D01*
G01X7490Y15426D01*
G01X7484Y15434D01*
G01X7478Y15440D01*
G01X7472Y15446D01*
G01X7465Y15451D01*
G01X7457Y15455D01*
G01X7449Y15457D01*
G01X7441Y15459D01*
G01X7432Y15459D01*
G01X7390Y15459D01*
G37*

%LPD*%
G36*
G01X7140Y15128D02*
G01X7100Y15128D01*
G01X7100Y15496D01*
G01X7155Y15496D01*
G01X7251Y15194D01*
G01X7251Y15242D01*
G01X7250Y15248D01*
G01X7250Y15253D01*
G01X7250Y15257D01*
G01X7250Y15496D01*
G01X7290Y15496D01*
G01X7290Y15128D01*
G01X7234Y15128D01*
G01X7138Y15428D01*
G01X7138Y15417D01*
G01X7138Y15405D01*
G01X7138Y15392D01*
G01X7138Y15378D01*
G01X7138Y15333D01*
G01X7139Y15328D01*
G01X7139Y15322D01*
G01X7140Y15317D01*
G01X7140Y15128D01*
G37*

%LPC*%

%LPD*%
G36*
G01X6465Y15128D02*
G01X6425Y15128D01*
G01X6401Y15201D01*
G01X6383Y15267D01*
G01X6368Y15326D01*
G01X6358Y15377D01*
G01X6351Y15421D01*
G01X6350Y15459D01*
G01X6350Y15496D01*
G01X6390Y15496D01*
G01X6390Y15459D01*
G01X6391Y15426D01*
G01X6396Y15387D01*
G01X6403Y15343D01*
G01X6414Y15292D01*
G01X6428Y15236D01*
G01X6444Y15173D01*
G01X6461Y15236D01*
G01X6475Y15292D01*
G01X6486Y15343D01*
G01X6493Y15387D01*
G01X6498Y15426D01*
G01X6500Y15459D01*
G01X6500Y15496D01*
G01X6540Y15496D01*
G01X6540Y15459D01*
G01X6538Y15421D01*
G01X6531Y15377D01*
G01X6521Y15326D01*
G01X6506Y15267D01*
G01X6488Y15201D01*
G01X6465Y15128D01*
G37*

%LPC*%

%LPD*%
G36*
G01X5465Y15128D02*
G01X5425Y15128D01*
G01X5425Y15459D01*
G01X5350Y15459D01*
G01X5350Y15496D01*
G01X5540Y15496D01*
G01X5540Y15459D01*
G01X5465Y15459D01*
G01X5465Y15128D01*
G37*

%LPC*%

%LPD*%
G36*
G01X4896Y15128D02*
G01X4857Y15128D01*
G01X4857Y15496D01*
G01X4944Y15496D01*
G01X4959Y15495D01*
G01X4973Y15492D01*
G01X4986Y15488D01*
G01X4998Y15482D01*
G01X5007Y15476D01*
G01X5015Y15469D01*
G01X5023Y15460D01*
G01X5030Y15451D01*
G01X5036Y15437D01*
G01X5040Y15423D01*
G01X5043Y15407D01*
G01X5044Y15390D01*
G01X5043Y15374D01*
G01X5040Y15358D01*
G01X5036Y15344D01*
G01X5030Y15330D01*
G01X5023Y15321D01*
G01X5015Y15312D01*
G01X5007Y15305D01*
G01X4998Y15298D01*
G01X4986Y15293D01*
G01X4973Y15289D01*
G01X4959Y15286D01*
G01X4944Y15286D01*
G01X4896Y15286D01*
G01X4896Y15128D01*
G37*

%LPC*%
G36*
G01X4896Y15459D02*
G01X4896Y15321D01*
G01X4944Y15321D01*
G01X4953Y15322D01*
G01X4960Y15323D01*
G01X4967Y15326D01*
G01X4973Y15328D01*
G01X4979Y15332D01*
G01X4984Y15337D01*
G01X4989Y15342D01*
G01X4994Y15348D01*
G01X4998Y15357D01*
G01X5001Y15367D01*
G01X5003Y15378D01*
G01X5003Y15390D01*
G01X5003Y15402D01*
G01X5001Y15413D01*
G01X4998Y15423D01*
G01X4994Y15432D01*
G01X4989Y15438D01*
G01X4984Y15444D01*
G01X4979Y15448D01*
G01X4973Y15453D01*
G01X4967Y15455D01*
G01X4960Y15458D01*
G01X4953Y15459D01*
G01X4944Y15459D01*
G01X4896Y15459D01*
G37*

%LPD*%
G36*
G01X4465Y15128D02*
G01X4425Y15128D01*
G01X4425Y15459D01*
G01X4350Y15459D01*
G01X4350Y15496D01*
G01X4540Y15496D01*
G01X4540Y15459D01*
G01X4465Y15459D01*
G01X4465Y15128D01*
G37*

%LPC*%

%LPD*%
G36*
G01X4186Y15128D02*
G01X4100Y15128D01*
G01X4100Y15496D01*
G01X4186Y15496D01*
G01X4200Y15495D01*
G01X4213Y15492D01*
G01X4225Y15489D01*
G01X4236Y15484D01*
G01X4244Y15478D01*
G01X4252Y15471D01*
G01X4259Y15463D01*
G01X4265Y15453D01*
G01X4271Y15442D01*
G01X4275Y15428D01*
G01X4278Y15414D01*
G01X4278Y15398D01*
G01X4278Y15385D01*
G01X4276Y15373D01*
G01X4272Y15361D01*
G01X4267Y15351D01*
G01X4261Y15342D01*
G01X4255Y15334D01*
G01X4247Y15328D01*
G01X4238Y15323D01*
G01X4238Y15322D01*
G01X4236Y15321D01*
G01X4236Y15321D01*
G01X4234Y15321D01*
G01X4238Y15319D01*
G01X4242Y15317D01*
G01X4246Y15315D01*
G01X4250Y15313D01*
G01X4259Y15307D01*
G01X4267Y15300D01*
G01X4275Y15291D01*
G01X4282Y15282D01*
G01X4287Y15271D01*
G01X4290Y15259D01*
G01X4293Y15246D01*
G01X4294Y15232D01*
G01X4293Y15216D01*
G01X4290Y15201D01*
G01X4286Y15188D01*
G01X4280Y15176D01*
G01X4273Y15165D01*
G01X4265Y15157D01*
G01X4257Y15148D01*
G01X4246Y15142D01*
G01X4233Y15135D01*
G01X4219Y15131D01*
G01X4203Y15128D01*
G01X4186Y15128D01*
G37*

%LPC*%
G36*
G01X4140Y15459D02*
G01X4140Y15336D01*
G01X4186Y15336D01*
G01X4194Y15337D01*
G01X4201Y15338D01*
G01X4207Y15340D01*
G01X4213Y15344D01*
G01X4217Y15347D01*
G01X4222Y15351D01*
G01X4226Y15355D01*
G01X4230Y15361D01*
G01X4234Y15369D01*
G01X4236Y15378D01*
G01X4238Y15388D01*
G01X4238Y15398D01*
G01X4238Y15409D01*
G01X4236Y15419D01*
G01X4234Y15428D01*
G01X4230Y15436D01*
G01X4226Y15441D01*
G01X4222Y15445D01*
G01X4217Y15449D01*
G01X4213Y15453D01*
G01X4207Y15455D01*
G01X4201Y15458D01*
G01X4194Y15459D01*
G01X4186Y15459D01*
G01X4140Y15459D01*
G37*
G36*
G01X4140Y15301D02*
G01X4140Y15163D01*
G01X4186Y15163D01*
G01X4197Y15164D01*
G01X4206Y15166D01*
G01X4215Y15169D01*
G01X4223Y15173D01*
G01X4229Y15177D01*
G01X4235Y15182D01*
G01X4240Y15187D01*
G01X4244Y15194D01*
G01X4248Y15202D01*
G01X4251Y15211D01*
G01X4253Y15221D01*
G01X4253Y15232D01*
G01X4253Y15243D01*
G01X4251Y15253D01*
G01X4248Y15262D01*
G01X4244Y15271D01*
G01X4240Y15277D01*
G01X4234Y15283D01*
G01X4229Y15288D01*
G01X4223Y15292D01*
G01X4215Y15296D01*
G01X4206Y15298D01*
G01X4197Y15300D01*
G01X4186Y15301D01*
G01X4140Y15301D01*
G37*

%LPD*%
G36*
G01X3890Y15128D02*
G01X3850Y15128D01*
G01X3850Y15496D01*
G01X3944Y15496D01*
G01X3959Y15495D01*
G01X3973Y15492D01*
G01X3986Y15488D01*
G01X3998Y15482D01*
G01X4007Y15476D01*
G01X4015Y15469D01*
G01X4023Y15460D01*
G01X4030Y15451D01*
G01X4036Y15437D01*
G01X4040Y15423D01*
G01X4043Y15407D01*
G01X4044Y15390D01*
G01X4043Y15374D01*
G01X4040Y15358D01*
G01X4036Y15344D01*
G01X4030Y15330D01*
G01X4023Y15321D01*
G01X4015Y15312D01*
G01X4007Y15305D01*
G01X3998Y15298D01*
G01X3993Y15296D01*
G01X3988Y15293D01*
G01X3983Y15291D01*
G01X3978Y15290D01*
G01X3984Y15280D01*
G01X3991Y15270D01*
G01X3997Y15261D01*
G01X4003Y15251D01*
G01X4033Y15184D01*
G01X4044Y15128D01*
G01X4003Y15128D01*
G01X3995Y15176D01*
G01X3969Y15232D01*
G01X3961Y15246D01*
G01X3952Y15259D01*
G01X3943Y15272D01*
G01X3934Y15286D01*
G01X3890Y15286D01*
G01X3890Y15128D01*
G37*

%LPC*%
G36*
G01X3890Y15459D02*
G01X3890Y15321D01*
G01X3944Y15321D01*
G01X3953Y15322D01*
G01X3960Y15323D01*
G01X3967Y15326D01*
G01X3973Y15328D01*
G01X3979Y15332D01*
G01X3984Y15337D01*
G01X3989Y15342D01*
G01X3994Y15348D01*
G01X3998Y15357D01*
G01X4001Y15367D01*
G01X4003Y15378D01*
G01X4003Y15390D01*
G01X4003Y15402D01*
G01X4001Y15413D01*
G01X3998Y15423D01*
G01X3994Y15432D01*
G01X3989Y15438D01*
G01X3984Y15444D01*
G01X3979Y15448D01*
G01X3973Y15453D01*
G01X3967Y15455D01*
G01X3960Y15458D01*
G01X3953Y15459D01*
G01X3944Y15459D01*
G01X3890Y15459D01*
G37*

%LPD*%
G36*
G01X3465Y15128D02*
G01X3425Y15128D01*
G01X3425Y15459D01*
G01X3350Y15459D01*
G01X3350Y15496D01*
G01X3540Y15496D01*
G01X3540Y15459D01*
G01X3465Y15459D01*
G01X3465Y15128D01*
G37*

%LPC*%

%LPD*%
G36*
G01X3186Y15128D02*
G01X3100Y15128D01*
G01X3100Y15496D01*
G01X3186Y15496D01*
G01X3200Y15495D01*
G01X3213Y15492D01*
G01X3225Y15489D01*
G01X3236Y15484D01*
G01X3244Y15478D01*
G01X3252Y15471D01*
G01X3259Y15463D01*
G01X3265Y15453D01*
G01X3271Y15442D01*
G01X3275Y15428D01*
G01X3278Y15414D01*
G01X3278Y15398D01*
G01X3278Y15385D01*
G01X3276Y15373D01*
G01X3272Y15361D01*
G01X3267Y15351D01*
G01X3261Y15342D01*
G01X3255Y15334D01*
G01X3247Y15328D01*
G01X3238Y15323D01*
G01X3238Y15322D01*
G01X3236Y15321D01*
G01X3236Y15321D01*
G01X3234Y15321D01*
G01X3238Y15319D01*
G01X3242Y15317D01*
G01X3246Y15315D01*
G01X3250Y15313D01*
G01X3259Y15307D01*
G01X3267Y15300D01*
G01X3275Y15291D01*
G01X3282Y15282D01*
G01X3287Y15271D01*
G01X3290Y15259D01*
G01X3293Y15246D01*
G01X3294Y15232D01*
G01X3293Y15216D01*
G01X3290Y15201D01*
G01X3286Y15188D01*
G01X3280Y15176D01*
G01X3273Y15165D01*
G01X3265Y15157D01*
G01X3257Y15148D01*
G01X3246Y15142D01*
G01X3233Y15135D01*
G01X3219Y15131D01*
G01X3203Y15128D01*
G01X3186Y15128D01*
G37*

%LPC*%
G36*
G01X3140Y15301D02*
G01X3140Y15163D01*
G01X3186Y15163D01*
G01X3197Y15164D01*
G01X3206Y15166D01*
G01X3215Y15169D01*
G01X3223Y15173D01*
G01X3229Y15177D01*
G01X3235Y15182D01*
G01X3240Y15187D01*
G01X3244Y15194D01*
G01X3248Y15202D01*
G01X3251Y15211D01*
G01X3253Y15221D01*
G01X3253Y15232D01*
G01X3253Y15243D01*
G01X3251Y15253D01*
G01X3248Y15262D01*
G01X3244Y15271D01*
G01X3240Y15277D01*
G01X3234Y15283D01*
G01X3229Y15288D01*
G01X3223Y15292D01*
G01X3215Y15296D01*
G01X3206Y15298D01*
G01X3197Y15300D01*
G01X3186Y15301D01*
G01X3140Y15301D01*
G37*
G36*
G01X3140Y15459D02*
G01X3140Y15336D01*
G01X3186Y15336D01*
G01X3194Y15337D01*
G01X3201Y15338D01*
G01X3207Y15340D01*
G01X3213Y15344D01*
G01X3217Y15347D01*
G01X3222Y15351D01*
G01X3226Y15355D01*
G01X3230Y15361D01*
G01X3234Y15369D01*
G01X3236Y15378D01*
G01X3238Y15388D01*
G01X3238Y15398D01*
G01X3238Y15409D01*
G01X3236Y15419D01*
G01X3234Y15428D01*
G01X3230Y15436D01*
G01X3226Y15441D01*
G01X3222Y15445D01*
G01X3217Y15449D01*
G01X3213Y15453D01*
G01X3207Y15455D01*
G01X3201Y15458D01*
G01X3194Y15459D01*
G01X3186Y15459D01*
G01X3140Y15459D01*
G37*

%LPD*%
G36*
G01X3044Y15128D02*
G01X2865Y15128D01*
G01X2865Y15496D01*
G01X2905Y15496D01*
G01X2905Y15163D01*
G01X3044Y15163D01*
G01X3044Y15128D01*
G37*

%LPC*%

%LPD*%
G36*
G01X2390Y15128D02*
G01X2350Y15128D01*
G01X2350Y15496D01*
G01X2390Y15496D01*
G01X2390Y15326D01*
G01X2440Y15386D01*
G01X2478Y15442D01*
G01X2486Y15458D01*
G01X2492Y15473D01*
G01X2496Y15485D01*
G01X2498Y15496D01*
G01X2540Y15496D01*
G01X2538Y15483D01*
G01X2534Y15468D01*
G01X2526Y15451D01*
G01X2515Y15432D01*
G01X2504Y15413D01*
G01X2492Y15394D01*
G01X2478Y15375D01*
G01X2463Y15355D01*
G01X2498Y15278D01*
G01X2523Y15213D01*
G01X2538Y15163D01*
G01X2544Y15128D01*
G01X2503Y15128D01*
G01X2499Y15159D01*
G01X2487Y15202D01*
G01X2466Y15256D01*
G01X2436Y15323D01*
G01X2425Y15309D01*
G01X2414Y15296D01*
G01X2402Y15283D01*
G01X2390Y15269D01*
G01X2390Y15128D01*
G37*

%LPC*%

%LPD*%
G36*
G01X1682Y15128D02*
G01X1600Y15128D01*
G01X1600Y15496D01*
G01X1682Y15496D01*
G01X1697Y15495D01*
G01X1711Y15492D01*
G01X1725Y15488D01*
G01X1738Y15482D01*
G01X1748Y15474D01*
G01X1758Y15465D01*
G01X1767Y15455D01*
G01X1775Y15444D01*
G01X1783Y15426D01*
G01X1789Y15407D01*
G01X1792Y15386D01*
G01X1794Y15363D01*
G01X1794Y15259D01*
G01X1792Y15237D01*
G01X1789Y15216D01*
G01X1783Y15197D01*
G01X1775Y15180D01*
G01X1767Y15168D01*
G01X1758Y15157D01*
G01X1748Y15149D01*
G01X1738Y15142D01*
G01X1725Y15135D01*
G01X1711Y15131D01*
G01X1697Y15128D01*
G01X1682Y15128D01*
G37*

%LPC*%
G36*
G01X1640Y15459D02*
G01X1640Y15163D01*
G01X1682Y15163D01*
G01X1691Y15164D01*
G01X1699Y15166D01*
G01X1707Y15169D01*
G01X1715Y15173D01*
G01X1722Y15177D01*
G01X1728Y15183D01*
G01X1734Y15190D01*
G01X1740Y15198D01*
G01X1746Y15210D01*
G01X1750Y15225D01*
G01X1753Y15241D01*
G01X1753Y15259D01*
G01X1753Y15363D01*
G01X1753Y15382D01*
G01X1750Y15398D01*
G01X1746Y15413D01*
G01X1740Y15426D01*
G01X1734Y15434D01*
G01X1728Y15440D01*
G01X1722Y15446D01*
G01X1715Y15451D01*
G01X1707Y15455D01*
G01X1699Y15457D01*
G01X1691Y15459D01*
G01X1682Y15459D01*
G01X1640Y15459D01*
G37*

%LPD*%
G36*
G01X5965Y15205D02*
G01X5925Y15205D01*
G01X5925Y15292D01*
G01X5850Y15292D01*
G01X5850Y15328D01*
G01X5925Y15328D01*
G01X5925Y15415D01*
G01X5965Y15415D01*
G01X5965Y15328D01*
G01X6040Y15328D01*
G01X6040Y15292D01*
G01X5965Y15292D01*
G01X5965Y15205D01*
G37*

%LPC*%

%LPD*%
G54D29*
G75*
G01X12350Y12081D02*
G3X12850Y12081I250J0D01*
G01*
G54D33*
G75*
G01X11931Y11796D02*
G3X11933Y11796I1J-118D01*
G01*
G54D34*
G75*
G01X11104Y11863D02*
G3X11105Y11863I1J-59D01*
G01*
G54D11*
G75*
G01X24496Y2972D02*
G3X24496Y3208I-5J118D01*
G01*
G75*
G01X24496Y3444D02*
G3X24496Y3208I5J-118D01*
G01*
G75*
G01X24496Y1436D02*
G3X24496Y1200I5J-118D01*
G01*
G75*
G01X24496Y964D02*
G3X24496Y1200I-5J118D01*
G01*
G54D10*
G75*
G01X30200Y1484D02*
G2X30200Y2784I554J650D01*
G01*
G75*
G01X30200Y3484D02*
G2X30200Y4784I526J650D01*
G01*
G75*
G01X30200Y5600D02*
G2X30200Y6900I526J650D01*
G01*
G54D29*
G75*
G01X17550Y8519D02*
G3X17050Y8519I-250J0D01*
G01*
G54D33*
G75*
G01X17969Y8804D02*
G3X17967Y8804I-1J118D01*
G01*
G54D34*
G75*
G01X18796Y8737D02*
G3X18795Y8737I-1J59D01*
G01*
M00*
M02*
