;PTH Drill file created by EasyEDA 
M48
INCH,LZ
;Holesize 1 = 0.012 INCH
T01C0.012
;Holesize 2 = 0.028 INCH
T02C0.028
;Holesize 3 = 0.035 INCH
T03C0.035
;Holesize 4 = 0.035 INCH
T04C0.035
;Holesize 5 = 0.035 INCH
T05C0.035
;Holesize 6 = 0.036 INCH
T06C0.036
;Holesize 7 = 0.047 INCH
T07C0.047
;Holesize 8 = 0.060 INCH
T08C0.060
;Holesize 9 = 0.067 INCH
T09C0.067
%
G05
G90
T01
X004161Y008632
X009057Y008001
T02
X009969Y014409
X009969Y013409
T03
X007100Y014500
X006100Y014500
X005100Y014500
X004100Y014500
X003100Y014500
X002100Y014500
X002200Y009200
X003200Y009200
X004200Y009200
X005200Y009200
X029300Y014100
X029300Y013100
X029300Y012100
X029300Y011100
X029300Y010100
X029300Y009100
X004200Y011000
X003200Y011000
X002200Y011000
T04
X020400Y009700
X020400Y012700
X025600Y004900
X021600Y004900
X025600Y006900
X021600Y006900
X025600Y008700
X021600Y008700
X008300Y013000
X008300Y009000
X006000Y012700
X002000Y012700
T05
X011100Y011300
X011100Y010300
X011100Y009300
X014100Y011300
X014100Y010300
X014100Y009300
X018800Y009300
X018800Y010300
X018800Y011300
X015800Y009300
X015800Y010300
X015800Y011300
X017900Y007200
X016900Y007200
X015900Y007200
X014900Y007200
X013900Y007200
X012900Y007200
X011900Y007200
X010900Y007200
X009900Y007200
X008900Y007200
X007900Y007200
X006900Y007200
X005900Y007200
X004900Y007200
X003900Y007200
X002900Y007200
X001900Y007200
X001900Y001200
X002900Y001200
X003900Y001200
X004900Y001200
X005900Y001200
X006900Y001200
X007900Y001200
X008900Y001200
X009900Y001200
X010900Y001200
X011900Y001200
X012900Y001200
X013900Y001200
X014900Y001200
X015900Y001200
X016900Y001200
X017900Y001200
T06
X002400Y016800
X003400Y016800
X004400Y016800
X005400Y016800
X006400Y016800
X007400Y016800
X008400Y016800
X009400Y016800
X010400Y016800
X007150Y022800
X005650Y022800
T07
X025500Y001200
X025500Y003207
X022153Y001200
X022153Y003207
T08
X026300Y021009
X026300Y018800
X026300Y016590
T09
X028700Y002100
X028700Y004067
X028700Y006100
M30
